<svg xmlns="http://www.w3.org/2000/svg" viewBox="0 0 320 240" font-family="system-ui,sans-serif">
  <rect width="320" height="240" fill="#0f1117"/>
  <text x="14" y="22" fill="#e8e8e8" font-size="13" font-weight="600">Dual EMA Crossover Momentum</text>
  <polyline points="14.0,220.9 14.3,222.7 14.6,223.3 14.9,220.7 15.2,220.3 15.5,218.4 15.8,217.1 16.0,218.3 16.3,217.1 16.6,217.6 16.9,218.1 17.2,217.8 17.5,220.7 17.8,218.3 18.1,219.4 18.4,217.4 18.7,217.0 19.0,213.9 19.3,215.1 19.6,215.6 19.8,214.8 20.1,219.0 20.4,217.3 20.7,214.1 21.0,211.8 21.3,210.1 21.6,210.3 21.9,207.5 22.2,205.2 22.5,204.2 22.8,204.1 23.1,204.7 23.4,207.2 23.6,204.5 23.9,208.9 24.2,209.6 24.5,209.1 24.8,207.2 25.1,203.4 25.4,201.1 25.7,201.6 26.0,199.9 26.3,202.5 26.6,199.3 26.9,199.5 27.2,200.9 27.4,202.1 27.7,202.1 28.0,202.9 28.3,197.8 28.6,199.2 28.9,199.0 29.2,198.8 29.5,198.7 29.8,198.4 30.1,199.3 30.4,200.5 30.7,202.2 31.0,205.3 31.2,204.7 31.5,202.5 31.8,203.5 32.1,204.6 32.4,205.1 32.7,206.0 33.0,208.8 33.3,205.9 33.6,204.8 33.9,206.2 34.2,205.5 34.5,206.3 34.8,206.6 35.0,205.7 35.3,203.6 35.6,200.2 35.9,196.3 36.2,196.8 36.5,197.7 36.8,197.4 37.1,197.0 37.4,198.5 37.7,199.7 38.0,197.8 38.3,194.0 38.6,194.4 38.8,195.7 39.1,196.2 39.4,198.3 39.7,198.8 40.0,197.7 40.3,197.8 40.6,194.9 40.9,194.5 41.2,193.2 41.5,193.5 41.8,190.3 42.1,193.0 42.4,193.5 42.6,196.0 42.9,194.1 43.2,192.0 43.5,193.1 43.8,189.1 44.1,189.7 44.4,192.7 44.7,193.2 45.0,192.3 45.3,192.7 45.6,187.4 45.9,185.2 46.2,180.9 46.4,177.4 46.7,181.4 47.0,182.2 47.3,188.5 47.6,189.8 47.9,187.1 48.2,188.9 48.5,190.3 48.8,189.4 49.1,187.4 49.4,188.1 49.7,188.6 50.0,186.6 50.2,185.9 50.5,186.4 50.8,185.5 51.1,185.2 51.4,184.5 51.7,179.5 52.0,180.1 52.3,181.3 52.6,177.7 52.9,179.3 53.2,174.9 53.5,175.3 53.8,175.0 54.0,173.0 54.3,169.8 54.6,167.1 54.9,167.4 55.2,168.2 55.5,167.2 55.8,166.7 56.1,168.2 56.4,167.0 56.7,164.3 57.0,163.7 57.3,159.4 57.6,158.1 57.8,158.4 58.1,158.0 58.4,159.3 58.7,161.9 59.0,160.5 59.3,162.6 59.6,163.4 59.9,163.5 60.2,162.3 60.5,160.9 60.8,160.7 61.1,165.6 61.4,166.0 61.6,167.8 61.9,168.0 62.2,165.3 62.5,163.0 62.8,162.3 63.1,160.8 63.4,164.6 63.7,163.9 64.0,162.1 64.3,163.8 64.6,162.6 64.9,163.5 65.2,160.7 65.4,157.5 65.7,158.8 66.0,154.7 66.3,155.1 66.6,149.2 66.9,150.4 67.2,150.1 67.5,149.3 67.8,151.2 68.1,155.8 68.4,157.9 68.7,154.8 69.0,155.5 69.2,156.2 69.5,151.9 69.8,150.4 70.1,148.2 70.4,145.7 70.7,148.1 71.0,147.6 71.3,147.0 71.6,147.3 71.9,150.2 72.2,148.7 72.5,156.3 72.8,158.1 73.0,159.6 73.3,160.4 73.6,158.7 73.9,155.5 74.2,152.2 74.5,150.7 74.8,150.0 75.1,154.6 75.4,152.5 75.7,147.5 76.0,146.8 76.3,146.6 76.6,145.4 76.8,144.3 77.1,144.3 77.4,145.2 77.7,144.7 78.0,147.6 78.3,151.4 78.6,148.9 78.9,149.9 79.2,148.6 79.5,145.8 79.8,143.7 80.1,145.0 80.4,144.6 80.6,147.1 80.9,147.5 81.2,145.6 81.5,145.8 81.8,151.4 82.1,155.8 82.4,157.4 82.7,154.8 83.0,154.5 83.3,154.2 83.6,156.8 83.9,156.5 84.2,160.8 84.4,160.1 84.7,157.8 85.0,159.3 85.3,157.2 85.6,158.5 85.9,158.2 86.2,158.4 86.5,158.2 86.8,155.3 87.1,153.6 87.4,154.9 87.7,160.3 87.9,158.5 88.2,157.0 88.5,156.6 88.8,157.7 89.1,154.6 89.4,158.1 89.7,159.5 90.0,162.3 90.3,161.4 90.6,162.2 90.9,158.1 91.2,158.0 91.5,158.4 91.7,157.3 92.0,158.7 92.3,160.7 92.6,159.6 92.9,160.5 93.2,158.5 93.5,157.8 93.8,157.6 94.1,157.4 94.4,157.6 94.7,156.8 95.0,157.5 95.3,161.2 95.5,161.0 95.8,161.8 96.1,164.3 96.4,162.6 96.7,163.3 97.0,166.4 97.3,166.4 97.6,167.5 97.9,170.5 98.2,169.6 98.5,171.4 98.8,169.7 99.1,171.1 99.3,169.0 99.6,167.9 99.9,167.5 100.2,168.7 100.5,166.7 100.8,165.6 101.1,166.1 101.4,164.8 101.7,166.6 102.0,168.8 102.3,168.7 102.6,168.4 102.9,167.3 103.1,167.0 103.4,164.4 103.7,166.7 104.0,165.4 104.3,164.8 104.6,162.0 104.9,161.7 105.2,161.0 105.5,157.5 105.8,156.0 106.1,154.8 106.4,155.6 106.7,155.3 106.9,158.5 107.2,160.1 107.5,158.8 107.8,162.1 108.1,161.8 108.4,161.7 108.7,160.8 109.0,164.0 109.3,167.7 109.6,165.4 109.9,165.0 110.2,164.0 110.5,160.8 110.7,160.4 111.0,164.0 111.3,164.5 111.6,162.8 111.9,163.4 112.2,163.9 112.5,164.9 112.8,161.9 113.1,159.4 113.4,162.8 113.7,159.1 114.0,160.5 114.3,156.5 114.5,159.0 114.8,156.9 115.1,157.9 115.4,158.2 115.7,156.5 116.0,157.9 116.3,157.3 116.6,156.7 116.9,154.4 117.2,151.8 117.5,148.3 117.8,147.9 118.1,147.3 118.3,148.5 118.6,150.2 118.9,152.8 119.2,153.3 119.5,153.1 119.8,153.1 120.1,152.1 120.4,154.7 120.7,151.5 121.0,151.0 121.3,149.0 121.6,148.5 121.9,150.3 122.1,151.1 122.4,157.5 122.7,157.0 123.0,157.1 123.3,154.8 123.6,158.2 123.9,158.3 124.2,158.9 124.5,161.2 124.8,163.9 125.1,166.0 125.4,163.9 125.7,161.9 125.9,164.6 126.2,164.7 126.5,163.6 126.8,162.9 127.1,165.6 127.4,166.6 127.7,169.1 128.0,166.9 128.3,161.8 128.6,161.8 128.9,165.8 129.2,164.0 129.5,160.9 129.7,158.0 130.0,157.6 130.3,156.6 130.6,156.4 130.9,154.3 131.2,151.5 131.5,153.4 131.8,154.9 132.1,155.7 132.4,156.2 132.7,155.5 133.0,152.2 133.3,155.7 133.5,153.0 133.8,153.4 134.1,161.0 134.4,161.9 134.7,162.5 135.0,160.9 135.3,159.2 135.6,159.0 135.9,161.0 136.2,158.3 136.5,160.0 136.8,163.0 137.1,164.6 137.3,165.8 137.6,166.0 137.9,167.0 138.2,167.8 138.5,165.7 138.8,163.5 139.1,161.9 139.4,162.6 139.7,164.2 140.0,164.6 140.3,164.9 140.6,162.5 140.9,163.1 141.1,166.1 141.4,168.1 141.7,163.4 142.0,165.7 142.3,168.8 142.6,169.4 142.9,164.7 143.2,164.3 143.5,163.4 143.8,167.4 144.1,171.0 144.4,170.9 144.7,171.9 144.9,170.8 145.2,173.4 145.5,170.6 145.8,167.0 146.1,170.8 146.4,170.1 146.7,170.6 147.0,166.8 147.3,166.0 147.6,163.4 147.9,163.4 148.2,162.5 148.5,156.6 148.7,150.7 149.0,155.3 149.3,154.0 149.6,153.2 149.9,156.0 150.2,157.9 150.5,157.3 150.8,154.5 151.1,152.9 151.4,153.9 151.7,156.7 152.0,162.1 152.3,157.9 152.5,159.2 152.8,161.4 153.1,160.3 153.4,160.4 153.7,160.3 154.0,158.4 154.3,159.5 154.6,162.2 154.9,162.4 155.2,162.1 155.5,164.8 155.8,167.5 156.1,170.1 156.3,167.8 156.6,164.1 156.9,160.6 157.2,162.8 157.5,164.5 157.8,167.7 158.1,162.8 158.4,163.9 158.7,163.8 159.0,164.9 159.3,164.3 159.6,166.9 159.9,168.4 160.1,170.6 160.4,176.4 160.7,175.6 161.0,173.6 161.3,171.0 161.6,166.9 161.9,164.2 162.2,164.3 162.5,162.7 162.8,164.0 163.1,161.7 163.4,162.3 163.7,168.3 163.9,168.2 164.2,167.9 164.5,170.7 164.8,169.4 165.1,166.2 165.4,169.0 165.7,166.9 166.0,164.5 166.3,166.9 166.6,167.8 166.9,170.5 167.2,171.8 167.5,171.8 167.7,168.7 168.0,170.2 168.3,174.0 168.6,181.5 168.9,183.0 169.2,186.0 169.5,185.4 169.8,184.7 170.1,188.3 170.4,187.4 170.7,187.7 171.0,188.2 171.3,189.2 171.5,186.9 171.8,185.4 172.1,184.8 172.4,181.9 172.7,181.7 173.0,181.2 173.3,179.8 173.6,180.3 173.9,183.0 174.2,178.7 174.5,176.2 174.8,179.2 175.1,181.5 175.3,183.9 175.6,187.4 175.9,186.4 176.2,182.7 176.5,181.6 176.8,177.7 177.1,178.6 177.4,177.8 177.7,179.9 178.0,179.7 178.3,177.0 178.6,175.1 178.9,172.4 179.1,173.2 179.4,170.8 179.7,166.9 180.0,165.3 180.3,168.8 180.6,167.9 180.9,167.1 181.2,168.7 181.5,171.2 181.8,173.1 182.1,170.0 182.4,169.6 182.7,165.1 182.9,169.6 183.2,168.4 183.5,164.1 183.8,159.0 184.1,160.3 184.4,155.9 184.7,152.7 185.0,149.3 185.3,148.5 185.6,145.5 185.9,142.7 186.2,144.2 186.5,151.7 186.7,148.4 187.0,145.2 187.3,142.8 187.6,143.8 187.9,144.8 188.2,149.1 188.5,144.3 188.8,144.3 189.1,141.7 189.4,146.9 189.7,151.4 190.0,149.7 190.3,147.3 190.5,143.7 190.8,144.0 191.1,144.9 191.4,144.6 191.7,146.6 192.0,148.2 192.3,147.0 192.6,147.4 192.9,148.4 193.2,147.6 193.5,148.2 193.8,143.6 194.1,144.2 194.3,141.3 194.6,140.0 194.9,138.3 195.2,137.7 195.5,138.2 195.8,138.3 196.1,139.6 196.4,139.1 196.7,137.3 197.0,142.2 197.3,144.7 197.6,147.0 197.9,145.7 198.1,144.6 198.4,145.4 198.7,142.6 199.0,143.4 199.3,142.4 199.6,141.0 199.9,141.4 200.2,139.5 200.5,140.4 200.8,140.6 201.1,140.5 201.4,139.2 201.7,136.6 201.9,138.3 202.2,141.1 202.5,139.9 202.8,144.1 203.1,144.1 203.4,143.0 203.7,146.5 204.0,148.1 204.3,148.6 204.6,148.8 204.9,148.8 205.2,148.0 205.5,146.7 205.7,149.7 206.0,147.3 206.3,147.8 206.6,148.6 206.9,146.5 207.2,147.5 207.5,149.2 207.8,152.7 208.1,150.2 208.4,153.6 208.7,156.0 209.0,159.8 209.3,160.3 209.5,163.7 209.8,161.1 210.1,162.1 210.4,164.0 210.7,163.0 211.0,164.7 211.3,164.6 211.6,162.5 211.9,163.7 212.2,164.1 212.5,165.2 212.8,165.4 213.1,159.2 213.3,163.0 213.6,161.0 213.9,160.6 214.2,161.6 214.5,159.4 214.8,156.8 215.1,158.3 215.4,158.2 215.7,159.2 216.0,158.1 216.3,157.5 216.6,157.3 216.9,156.3 217.1,155.1 217.4,152.1 217.7,153.7 218.0,153.7 218.3,148.8 218.6,150.0 218.9,147.6 219.2,149.4 219.5,148.0 219.8,148.3 220.1,147.5 220.4,148.0 220.7,145.5 220.9,145.6 221.2,146.0 221.5,145.1 221.8,146.5 222.1,150.9 222.4,153.7 222.7,154.9 223.0,151.5 223.3,147.0 223.6,149.6 223.9,149.2 224.2,150.5 224.5,149.9 224.7,152.3 225.0,151.5 225.3,152.9 225.6,155.1 225.9,156.2 226.2,159.8 226.5,158.3 226.8,159.7 227.1,156.6 227.4,154.8 227.7,152.3 228.0,152.9 228.3,150.2 228.5,147.6 228.8,148.4 229.1,148.2 229.4,145.4 229.7,145.0 230.0,146.4 230.3,144.3 230.6,142.0 230.9,143.8 231.2,143.0 231.5,143.0 231.8,140.9 232.1,142.4 232.3,139.9 232.6,138.2 232.9,139.1 233.2,140.2 233.5,142.6 233.8,139.9 234.1,141.9 234.4,142.3 234.7,138.7 235.0,137.3 235.3,136.9 235.6,136.5 235.8,137.1 236.1,139.9 236.4,138.9 236.7,141.2 237.0,137.1 237.3,140.4 237.6,141.0 237.9,141.0 238.2,142.3 238.5,142.3 238.8,141.0 239.1,138.2 239.4,138.1 239.6,138.2 239.9,137.6 240.2,137.6 240.5,139.2 240.8,139.3 241.1,136.9 241.4,136.9 241.7,137.0 242.0,137.4 242.3,136.4 242.6,135.7 242.9,135.0 243.2,135.8 243.4,140.5 243.7,141.7 244.0,141.9 244.3,143.7 244.6,142.4 244.9,144.1 245.2,148.4 245.5,146.8 245.8,147.2 246.1,147.1 246.4,150.5 246.7,151.1 247.0,151.2 247.2,151.0 247.5,149.1 247.8,150.7 248.1,151.2 248.4,146.2 248.7,146.4 249.0,142.0 249.3,146.8 249.6,147.1 249.9,143.4 250.2,141.1 250.5,136.4 250.8,137.3 251.0,136.6 251.3,143.4 251.6,147.2 251.9,145.5 252.2,147.1 252.5,144.5 252.8,145.1 253.1,143.4 253.4,145.6 253.7,148.4 254.0,145.1 254.3,143.3 254.6,143.0 254.8,140.4 255.1,137.5 255.4,133.9 255.7,134.7 256.0,136.7 256.3,136.4 256.6,135.1 256.9,138.8 257.2,145.1 257.5,143.8 257.8,140.0 258.1,139.4 258.4,140.0 258.6,139.2 258.9,138.4 259.2,141.2 259.5,140.2 259.8,136.5 260.1,135.1 260.4,135.3 260.7,132.8 261.0,130.7 261.3,133.6 261.6,129.5 261.9,126.7 262.2,125.4 262.4,123.7 262.7,122.8 263.0,124.9 263.3,122.6 263.6,122.3 263.9,118.5 264.2,119.9 264.5,122.1 264.8,124.6 265.1,121.1 265.4,121.0 265.7,122.5 266.0,126.3 266.2,118.0 266.5,117.5 266.8,119.2 267.1,120.5 267.4,116.5 267.7,117.3 268.0,120.5 268.3,120.6 268.6,115.1 268.9,110.8 269.2,106.2 269.5,108.2 269.8,112.8 270.0,113.8 270.3,114.9 270.6,114.7 270.9,111.5 271.2,113.1 271.5,115.5 271.8,118.8 272.1,116.2 272.4,114.7 272.7,111.6 273.0,115.6 273.3,116.9 273.6,112.6 273.8,111.0 274.1,106.9 274.4,103.5 274.7,100.8 275.0,102.7 275.3,102.9 275.6,101.6 275.9,93.3 276.2,90.4 276.5,90.6 276.8,89.7 277.1,87.9 277.4,88.4 277.6,85.6 277.9,81.4 278.2,72.0 278.5,65.9 278.8,64.5 279.1,66.6 279.4,71.0 279.7,67.0 280.0,61.9 280.3,55.8 280.6,54.3 280.9,53.9 281.2,53.9 281.4,50.3 281.7,58.3 282.0,64.8 282.3,74.0 282.6,75.4 282.9,75.7 283.2,70.9 283.5,70.5 283.8,68.2 284.1,68.5 284.4,70.1 284.7,74.0 285.0,72.8 285.2,72.7 285.5,76.5 285.8,78.4 286.1,82.1 286.4,85.0 286.7,80.2 287.0,78.6 287.3,76.4 287.6,79.7 287.9,81.6 288.2,76.9 288.5,79.2 288.8,81.3 289.0,78.6 289.3,74.0 289.6,69.1 289.9,68.1 290.2,70.2 290.5,68.6 290.8,66.4 291.1,67.0 291.4,67.7 291.7,64.5 292.0,56.6 292.3,62.9 292.6,62.5 292.8,68.4 293.1,67.9 293.4,68.9 293.7,60.7 294.0,58.4 294.3,62.3 294.6,55.9 294.9,61.8 295.2,58.8 295.5,51.3 295.8,49.4 296.1,46.2 296.4,43.7 296.6,43.9 296.9,42.4 297.2,48.2 297.5,45.5 297.8,48.0 298.1,44.2 298.4,45.1 298.7,45.2 299.0,45.7 299.3,48.6 299.6,46.1 299.9,46.8 300.2,50.7 300.4,52.2 300.7,52.6 301.0,50.6 301.3,49.5 301.6,51.0 301.9,49.6 302.2,40.0 302.5,40.8 302.8,52.1 303.1,56.4 303.4,58.7 303.7,53.8 304.0,48.5 304.2,50.2 304.5,49.1 304.8,49.3 305.1,54.1 305.4,53.5 305.7,51.8 306.0,55.8" fill="none" stroke="#6e7681" stroke-width="1.5" stroke-dasharray="3 3"/>
  <polyline points="14.0,220.9 14.3,220.9 14.6,220.9 14.9,220.9 15.2,220.9 15.5,220.9 15.8,220.9 16.0,220.9 16.3,220.9 16.6,220.9 16.9,220.9 17.2,220.9 17.5,220.9 17.8,220.9 18.1,220.9 18.4,220.9 18.7,220.9 19.0,220.9 19.3,220.9 19.6,220.9 19.8,220.9 20.1,220.9 20.4,220.9 20.7,220.9 21.0,220.9 21.3,220.9 21.6,220.9 21.9,220.9 22.2,220.9 22.5,220.9 22.8,220.9 23.1,220.9 23.4,220.9 23.6,220.9 23.9,220.9 24.2,220.9 24.5,220.9 24.8,220.9 25.1,220.9 25.4,220.9 25.7,220.9 26.0,220.9 26.3,220.9 26.6,220.9 26.9,220.9 27.2,220.9 27.4,220.9 27.7,220.9 28.0,220.9 28.3,220.9 28.6,220.9 28.9,220.9 29.2,220.9 29.5,220.9 29.8,220.9 30.1,220.9 30.4,220.9 30.7,220.9 31.0,220.9 31.2,220.9 31.5,219.5 31.8,220.7 32.1,221.9 32.4,222.6 32.7,223.4 33.0,226.0 33.3,223.3 33.6,222.4 33.9,223.3 34.2,222.4 34.5,222.9 34.8,223.1 35.0,222.2 35.3,220.3 35.6,217.6 35.9,213.8 36.2,214.1 36.5,214.8 36.8,214.9 37.1,214.5 37.4,216.0 37.7,217.5 38.0,216.0 38.3,212.6 38.6,212.8 38.8,214.3 39.1,214.6 39.4,216.7 39.7,216.9 40.0,215.5 40.3,215.4 40.6,213.0 40.9,213.0 41.2,211.7 41.5,212.2 41.8,209.5 42.1,211.8 42.4,212.7 42.6,215.0 42.9,213.3 43.2,211.0 43.5,212.1 43.8,208.8 44.1,209.4 44.4,212.4 44.7,212.9 45.0,212.3 45.3,212.4 45.6,207.3 45.9,205.5 46.2,201.9 46.4,198.9 46.7,202.0 47.0,203.0 47.3,208.3 47.6,209.5 47.9,207.4 48.2,208.7 48.5,209.7 48.8,209.4 49.1,207.7 49.4,208.0 49.7,208.0 50.0,206.2 50.2,205.9 50.5,206.1 50.8,205.4 51.1,204.7 51.4,203.5 51.7,199.2 52.0,199.3 52.3,200.8 52.6,197.8 52.9,199.2 53.2,195.2 53.5,195.1 53.8,195.0 54.0,193.8 54.3,190.9 54.6,188.6 54.9,188.6 55.2,189.0 55.5,187.5 55.8,187.3 56.1,189.0 56.4,188.0 56.7,185.1 57.0,184.1 57.3,180.0 57.6,179.1 57.8,179.7 58.1,179.5 58.4,180.2 58.7,182.5 59.0,180.7 59.3,182.5 59.6,183.7 59.9,184.2 60.2,183.3 60.5,181.7 60.8,181.0 61.1,185.8 61.4,186.2 61.6,187.4 61.9,187.9 62.2,185.5 62.5,184.0 62.8,182.8 63.1,181.1 63.4,184.4 63.7,183.3 64.0,181.3 64.3,183.0 64.6,181.6 64.9,182.4 65.2,179.4 65.4,177.1 65.7,178.3 66.0,174.3 66.3,174.7 66.6,169.5 66.9,170.6 67.2,170.3 67.5,169.6 67.8,171.6 68.1,175.5 68.4,177.6 68.7,174.8 69.0,175.9 69.2,176.4 69.5,172.1 69.8,170.4 70.1,168.0 70.4,165.8 70.7,167.7 71.0,167.1 71.3,166.3 71.6,166.3 71.9,169.4 72.2,168.7 72.5,175.9 72.8,178.0 73.0,179.1 73.3,179.2 73.6,177.4 73.9,174.1 74.2,170.7 74.5,170.0 74.8,168.9 75.1,173.0 75.4,170.5 75.7,166.2 76.0,165.5 76.3,164.8 76.6,163.5 76.8,161.8 77.1,162.4 77.4,163.1 77.7,162.1 78.0,165.2 78.3,168.7 78.6,166.5 78.9,167.3 79.2,166.3 79.5,163.5 79.8,161.7 80.1,162.6 80.4,162.1 80.6,164.0 80.9,164.9 81.2,163.2 81.5,163.5 81.8,168.8 82.1,173.3 82.4,174.7 82.7,172.9 83.0,173.0 83.3,173.2 83.6,175.7 83.9,175.2 84.2,178.7 84.4,178.3 84.7,175.6 85.0,175.8 85.3,175.8 85.6,175.8 85.9,175.8 86.2,175.8 86.5,175.8 86.8,175.8 87.1,175.8 87.4,175.8 87.7,175.8 87.9,175.8 88.2,175.8 88.5,175.8 88.8,175.8 89.1,175.8 89.4,175.8 89.7,175.8 90.0,175.8 90.3,175.8 90.6,175.8 90.9,175.8 91.2,175.8 91.5,175.8 91.7,175.8 92.0,175.8 92.3,175.8 92.6,175.8 92.9,175.8 93.2,175.8 93.5,175.8 93.8,175.8 94.1,175.8 94.4,175.8 94.7,175.8 95.0,175.8 95.3,175.8 95.5,175.8 95.8,175.8 96.1,175.8 96.4,175.8 96.7,175.8 97.0,175.8 97.3,175.8 97.6,175.8 97.9,175.8 98.2,175.8 98.5,175.8 98.8,175.8 99.1,175.8 99.3,175.8 99.6,175.8 99.9,175.8 100.2,175.8 100.5,175.8 100.8,175.8 101.1,175.8 101.4,175.8 101.7,175.8 102.0,175.8 102.3,175.8 102.6,175.8 102.9,175.8 103.1,175.8 103.4,175.8 103.7,175.8 104.0,175.8 104.3,175.8 104.6,175.8 104.9,175.8 105.2,175.8 105.5,175.8 105.8,175.8 106.1,175.8 106.4,175.8 106.7,176.1 106.9,178.7 107.2,180.1 107.5,179.3 107.8,182.3 108.1,182.5 108.4,182.5 108.7,182.1 109.0,184.8 109.3,188.2 109.6,185.6 109.9,185.7 110.2,185.7 110.5,185.7 110.7,185.7 111.0,185.7 111.3,185.7 111.6,185.7 111.9,185.7 112.2,185.7 112.5,185.7 112.8,185.7 113.1,185.7 113.4,185.7 113.7,185.7 114.0,185.7 114.3,182.1 114.5,184.5 114.8,183.1 115.1,184.1 115.4,184.8 115.7,183.1 116.0,184.6 116.3,183.9 116.6,183.3 116.9,180.9 117.2,179.0 117.5,175.6 117.8,175.2 118.1,175.3 118.3,176.3 118.6,178.2 118.9,180.9 119.2,181.4 119.5,180.7 119.8,180.4 120.1,179.4 120.4,181.7 120.7,179.1 121.0,179.0 121.3,176.8 121.6,176.2 121.9,177.2 122.1,177.6 122.4,183.7 122.7,183.1 123.0,182.7 123.3,180.9 123.6,183.4 123.9,184.0 124.2,184.6 124.5,186.9 124.8,189.3 125.1,191.0 125.4,188.7 125.7,188.9 125.9,188.9 126.2,188.9 126.5,188.9 126.8,188.9 127.1,188.9 127.4,188.9 127.7,188.9 128.0,188.9 128.3,188.9 128.6,188.9 128.9,188.9 129.2,188.9 129.5,188.9 129.7,188.9 130.0,188.9 130.3,188.9 130.6,188.9 130.9,188.9 131.2,188.9 131.5,188.9 131.8,189.9 132.1,190.2 132.4,190.9 132.7,190.2 133.0,187.8 133.3,190.3 133.5,188.0 133.8,188.4 134.1,194.9 134.4,195.5 134.7,196.5 135.0,195.0 135.3,193.7 135.6,193.2 135.9,194.6 136.2,191.8 136.5,192.9 136.8,193.1 137.1,193.1 137.3,193.1 137.6,193.1 137.9,193.1 138.2,193.1 138.5,193.1 138.8,193.1 139.1,193.1 139.4,193.1 139.7,193.1 140.0,193.1 140.3,193.1 140.6,193.1 140.9,193.1 141.1,193.1 141.4,193.1 141.7,193.1 142.0,193.1 142.3,193.1 142.6,193.1 142.9,193.1 143.2,193.1 143.5,193.1 143.8,193.1 144.1,193.1 144.4,193.1 144.7,193.1 144.9,193.1 145.2,193.1 145.5,193.1 145.8,193.1 146.1,193.1 146.4,193.1 146.7,193.1 147.0,193.1 147.3,193.1 147.6,193.1 147.9,193.1 148.2,193.1 148.5,193.1 148.7,193.1 149.0,193.1 149.3,192.7 149.6,192.5 149.9,194.5 150.2,196.1 150.5,195.6 150.8,193.0 151.1,191.9 151.4,193.1 151.7,195.5 152.0,199.7 152.3,196.6 152.5,198.0 152.8,199.6 153.1,198.9 153.4,199.2 153.7,199.3 154.0,197.6 154.3,198.2 154.6,200.5 154.9,200.7 155.2,200.6 155.5,203.1 155.8,205.7 156.1,207.9 156.3,208.0 156.6,208.0 156.9,208.0 157.2,208.0 157.5,208.0 157.8,208.0 158.1,208.0 158.4,208.0 158.7,208.0 159.0,208.0 159.3,208.0 159.6,208.0 159.9,208.0 160.1,208.0 160.4,208.0 160.7,208.0 161.0,208.0 161.3,208.0 161.6,208.0 161.9,208.0 162.2,208.0 162.5,208.0 162.8,208.0 163.1,208.0 163.4,208.0 163.7,208.0 163.9,208.0 164.2,208.0 164.5,208.0 164.8,208.0 165.1,208.0 165.4,208.0 165.7,208.0 166.0,208.0 166.3,208.0 166.6,208.0 166.9,208.0 167.2,208.0 167.5,208.0 167.7,208.0 168.0,208.0 168.3,208.0 168.6,208.0 168.9,208.0 169.2,208.0 169.5,208.0 169.8,208.0 170.1,208.0 170.4,208.0 170.7,208.0 171.0,208.0 171.3,208.0 171.5,208.0 171.8,208.0 172.1,208.0 172.4,208.0 172.7,208.0 173.0,208.0 173.3,208.0 173.6,208.0 173.9,208.0 174.2,208.0 174.5,208.0 174.8,208.0 175.1,208.0 175.3,208.0 175.6,208.0 175.9,208.0 176.2,208.0 176.5,208.0 176.8,208.0 177.1,208.0 177.4,208.0 177.7,208.0 178.0,208.0 178.3,208.0 178.6,208.0 178.9,208.0 179.1,208.0 179.4,208.0 179.7,208.0 180.0,208.0 180.3,211.3 180.6,210.4 180.9,209.9 181.2,210.7 181.5,213.1 181.8,214.4 182.1,211.8 182.4,211.1 182.7,207.3 182.9,211.3 183.2,210.1 183.5,206.6 183.8,202.6 184.1,203.9 184.4,200.9 184.7,198.8 185.0,196.1 185.3,195.7 185.6,193.0 185.9,190.9 186.2,191.8 186.5,197.3 186.7,194.2 187.0,191.9 187.3,189.9 187.6,191.1 187.9,192.1 188.2,195.6 188.5,191.7 188.8,191.6 189.1,189.8 189.4,194.0 189.7,197.7 190.0,196.5 190.3,195.0 190.5,192.1 190.8,192.6 191.1,193.5 191.4,193.6 191.7,195.0 192.0,196.2 192.3,195.1 192.6,194.9 192.9,195.2 193.2,195.0 193.5,195.7 193.8,192.5 194.1,192.9 194.3,190.4 194.6,189.1 194.9,187.2 195.2,186.2 195.5,186.9 195.8,186.5 196.1,187.2 196.4,187.2 196.7,185.4 197.0,188.8 197.3,191.2 197.6,193.4 197.9,192.6 198.1,191.7 198.4,191.8 198.7,189.1 199.0,189.3 199.3,188.9 199.6,187.8 199.9,188.4 200.2,187.1 200.5,187.5 200.8,187.7 201.1,187.2 201.4,185.9 201.7,184.1 201.9,185.2 202.2,187.3 202.5,186.2 202.8,189.8 203.1,190.3 203.4,189.8 203.7,192.0 204.0,193.2 204.3,193.8 204.6,194.0 204.9,193.5 205.2,193.3 205.5,191.9 205.7,194.4 206.0,192.9 206.3,193.1 206.6,193.3 206.9,191.3 207.2,192.4 207.5,194.1 207.8,197.4 208.1,197.6 208.4,197.6 208.7,197.6 209.0,197.6 209.3,197.6 209.5,197.6 209.8,197.6 210.1,197.6 210.4,197.6 210.7,197.6 211.0,197.6 211.3,197.6 211.6,197.6 211.9,197.6 212.2,197.6 212.5,197.6 212.8,197.6 213.1,197.6 213.3,197.6 213.6,197.6 213.9,197.6 214.2,197.6 214.5,197.6 214.8,197.6 215.1,197.6 215.4,197.6 215.7,197.6 216.0,197.6 216.3,197.6 216.6,197.6 216.9,197.6 217.1,197.6 217.4,197.6 217.7,197.6 218.0,197.6 218.3,197.6 218.6,197.6 218.9,197.6 219.2,197.6 219.5,196.3 219.8,196.1 220.1,195.4 220.4,195.5 220.7,193.2 220.9,193.4 221.2,193.4 221.5,192.7 221.8,193.8 222.1,197.0 222.4,198.7 222.7,199.4 223.0,196.6 223.3,192.9 223.6,195.1 223.9,195.1 224.2,196.5 224.5,195.8 224.7,198.0 225.0,197.3 225.3,198.1 225.6,199.9 225.9,200.9 226.2,203.4 226.5,202.0 226.8,202.2 227.1,202.2 227.4,202.2 227.7,202.2 228.0,202.2 228.3,202.2 228.5,202.2 228.8,202.2 229.1,201.8 229.4,199.9 229.7,199.6 230.0,200.4 230.3,199.0 230.6,197.5 230.9,198.5 231.2,198.2 231.5,198.0 231.8,196.6 232.1,197.3 232.3,195.2 232.6,193.9 232.9,195.0 233.2,196.2 233.5,197.9 233.8,196.1 234.1,197.6 234.4,197.5 234.7,194.3 235.0,193.1 235.3,192.6 235.6,192.7 235.8,193.3 236.1,195.7 236.4,195.5 236.7,196.7 237.0,193.2 237.3,195.2 237.6,195.9 237.9,196.4 238.2,196.8 238.5,196.7 238.8,196.2 239.1,193.8 239.4,193.6 239.6,193.7 239.9,193.4 240.2,193.7 240.5,195.3 240.8,195.5 241.1,193.4 241.4,192.8 241.7,193.4 242.0,194.1 242.3,193.6 242.6,193.4 242.9,192.9 243.2,193.2 243.4,197.1 243.7,198.1 244.0,198.7 244.3,199.8 244.6,198.7 244.9,200.4 245.2,203.4 245.5,202.3 245.8,203.0 246.1,203.0 246.4,205.3 246.7,205.5 247.0,205.5 247.2,205.5 247.5,205.5 247.8,205.5 248.1,205.5 248.4,205.5 248.7,205.5 249.0,205.5 249.3,205.5 249.6,205.5 249.9,205.5 250.2,205.5 250.5,205.5 250.8,205.5 251.0,205.5 251.3,210.5 251.6,213.2 251.9,212.4 252.2,212.6 252.5,212.6 252.8,212.6 253.1,212.6 253.4,212.6 253.7,212.6 254.0,212.6 254.3,212.6 254.6,212.6 254.8,212.6 255.1,212.6 255.4,210.5 255.7,210.6 256.0,212.1 256.3,211.5 256.6,210.2 256.9,212.9 257.2,217.5 257.5,216.2 257.8,213.9 258.1,213.3 258.4,213.4 258.6,213.3 258.9,212.7 259.2,214.7 259.5,214.2 259.8,211.7 260.1,210.4 260.4,210.5 260.7,209.1 261.0,207.5 261.3,209.0 261.6,206.4 261.9,204.7 262.2,204.2 262.4,203.2 262.7,202.3 263.0,203.4 263.3,201.7 263.6,200.9 263.9,198.0 264.2,199.0 264.5,200.9 264.8,202.3 265.1,199.5 265.4,199.3 265.7,200.6 266.0,203.6 266.2,197.5 266.5,197.5 266.8,198.6 267.1,199.5 267.4,196.8 267.7,197.5 268.0,200.2 268.3,199.8 268.6,195.8 268.9,193.1 269.2,189.4 269.5,191.0 269.8,194.1 270.0,194.7 270.3,195.8 270.6,195.5 270.9,192.9 271.2,194.2 271.5,196.0 271.8,198.8 272.1,196.8 272.4,196.0 272.7,194.1 273.0,196.8 273.3,198.2 273.6,195.5 273.8,194.1 274.1,191.3 274.4,189.0 274.7,186.8 275.0,187.7 275.3,187.9 275.6,187.5 275.9,182.1 276.2,179.8 276.5,180.3 276.8,179.3 277.1,178.5 277.4,179.3 277.6,177.4 277.9,174.7 278.2,168.3 278.5,164.1 278.8,163.1 279.1,164.3 279.4,167.2 279.7,164.0 280.0,160.8 280.3,157.2 280.6,155.7 280.9,155.3 281.2,155.1 281.4,152.9 281.7,158.2 282.0,162.0 282.3,168.1 282.6,169.1 282.9,168.8 283.2,165.1 283.5,164.4 283.8,163.3 284.1,163.1 284.4,164.2 284.7,166.7 285.0,166.5 285.2,166.7 285.5,169.2 285.8,171.0 286.1,173.3 286.4,174.7 286.7,171.1 287.0,170.1 287.3,169.2 287.6,171.3 287.9,172.8 288.2,169.6 288.5,171.4 288.8,172.8 289.0,170.6 289.3,167.5 289.6,164.0 289.9,162.7 290.2,164.8 290.5,164.3 290.8,162.3 291.1,163.3 291.4,164.1 291.7,162.3 292.0,157.1 292.3,161.7 292.6,161.5 292.8,165.2 293.1,165.4 293.4,166.5 293.7,160.4 294.0,159.4 294.3,162.2 294.6,158.2 294.9,162.6 295.2,160.3 295.5,154.7 295.8,153.5 296.1,151.3 296.4,149.3 296.6,149.4 296.9,147.9 297.2,152.2 297.5,151.0 297.8,152.0 298.1,149.2 298.4,149.7 298.7,149.3 299.0,150.2 299.3,151.9 299.6,150.5 299.9,150.8 300.2,153.7 300.4,154.2 300.7,154.2 301.0,153.1 301.3,151.9 301.6,152.8 301.9,152.4 302.2,146.1 302.5,146.1 302.8,153.2 303.1,155.9 303.4,158.1 303.7,155.3 304.0,151.4 304.2,152.5 304.5,152.1 304.8,152.8 305.1,155.7 305.4,155.2 305.7,154.0 306.0,157.4" fill="none" stroke="#3fb950" stroke-width="2"/>
  <text x="306" y="226" fill="#3fb950" font-size="12" text-anchor="end">×1.42 on regime_switch</text>
</svg>
