<svg xmlns="http://www.w3.org/2000/svg" viewBox="0 0 320 240" font-family="system-ui,sans-serif">
  <rect width="320" height="240" fill="#0f1117"/>
  <text x="14" y="22" fill="#e8e8e8" font-size="13" font-weight="600">Donchian Channel Turtle Breakout</text>
  <polyline points="14.0,223.6 14.3,225.4 14.6,226.0 14.9,223.4 15.2,222.9 15.5,221.0 15.8,219.8 16.0,220.9 16.3,219.7 16.6,220.2 16.9,220.8 17.2,220.5 17.5,223.3 17.8,220.9 18.1,222.1 18.4,220.0 18.7,219.6 19.0,216.4 19.3,217.7 19.6,218.2 19.8,217.4 20.1,221.7 20.4,219.9 20.7,216.7 21.0,214.3 21.3,212.6 21.6,212.8 21.9,210.0 22.2,207.6 22.5,206.6 22.8,206.5 23.1,207.2 23.4,209.7 23.6,206.9 23.9,211.4 24.2,212.1 24.5,211.6 24.8,209.7 25.1,205.8 25.4,203.5 25.7,204.0 26.0,202.3 26.3,204.9 26.6,201.7 26.9,201.9 27.2,203.3 27.4,204.5 27.7,204.5 28.0,205.3 28.3,200.1 28.6,201.6 28.9,201.4 29.2,201.2 29.5,201.0 29.8,200.8 30.1,201.7 30.4,202.9 30.7,204.6 31.0,207.7 31.2,207.1 31.5,204.9 31.8,205.9 32.1,207.0 32.4,207.6 32.7,208.4 33.0,211.3 33.3,208.3 33.6,207.3 33.9,208.7 34.2,207.9 34.5,208.7 34.8,209.1 35.0,208.2 35.3,206.0 35.6,202.6 35.9,198.6 36.2,199.1 36.5,200.1 36.8,199.7 37.1,199.3 37.4,200.8 37.7,202.1 38.0,200.1 38.3,196.3 38.6,196.7 38.8,198.0 39.1,198.5 39.4,200.6 39.7,201.1 40.0,200.1 40.3,200.1 40.6,197.2 40.9,196.7 41.2,195.5 41.5,195.7 41.8,192.5 42.1,195.2 42.4,195.8 42.6,198.3 42.9,196.3 43.2,194.3 43.5,195.3 43.8,191.3 44.1,191.9 44.4,195.0 44.7,195.5 45.0,194.5 45.3,194.9 45.6,189.5 45.9,187.4 46.2,183.0 46.4,179.5 46.7,183.5 47.0,184.3 47.3,190.7 47.6,192.0 47.9,189.3 48.2,191.1 48.5,192.5 48.8,191.6 49.1,189.6 49.4,190.3 49.7,190.8 50.0,188.7 50.2,188.0 50.5,188.6 50.8,187.7 51.1,187.3 51.4,186.6 51.7,181.6 52.0,182.2 52.3,183.4 52.6,179.8 52.9,181.4 53.2,176.9 53.5,177.3 53.8,176.9 54.0,174.9 54.3,171.7 54.6,168.9 54.9,169.3 55.2,170.1 55.5,169.1 55.8,168.6 56.1,170.1 56.4,168.9 56.7,166.1 57.0,165.5 57.3,161.1 57.6,159.9 57.8,160.1 58.1,159.7 58.4,161.1 58.7,163.7 59.0,162.3 59.3,164.4 59.6,165.2 59.9,165.3 60.2,164.1 60.5,162.7 60.8,162.4 61.1,167.4 61.4,167.8 61.6,169.7 61.9,169.9 62.2,167.1 62.5,164.8 62.8,164.1 63.1,162.6 63.4,166.4 63.7,165.7 64.0,163.9 64.3,165.7 64.6,164.4 64.9,165.3 65.2,162.4 65.4,159.3 65.7,160.6 66.0,156.4 66.3,156.8 66.6,150.8 66.9,152.0 67.2,151.7 67.5,150.9 67.8,152.9 68.1,157.6 68.4,159.6 68.7,156.5 69.0,157.2 69.2,158.0 69.5,153.6 69.8,152.0 70.1,149.8 70.4,147.2 70.7,149.7 71.0,149.2 71.3,148.6 71.6,148.9 71.9,151.8 72.2,150.3 72.5,158.1 72.8,159.9 73.0,161.4 73.3,162.1 73.6,160.4 73.9,157.2 74.2,153.9 74.5,152.4 74.8,151.6 75.1,156.3 75.4,154.1 75.7,149.1 76.0,148.4 76.3,148.2 76.6,147.0 76.8,145.8 77.1,145.8 77.4,146.8 77.7,146.3 78.0,149.2 78.3,153.0 78.6,150.5 78.9,151.5 79.2,150.2 79.5,147.4 79.8,145.2 80.1,146.6 80.4,146.2 80.6,148.7 80.9,149.0 81.2,147.2 81.5,147.4 81.8,153.1 82.1,157.5 82.4,159.1 82.7,156.5 83.0,156.2 83.3,155.9 83.6,158.5 83.9,158.2 84.2,162.6 84.4,161.9 84.7,159.5 85.0,161.1 85.3,158.9 85.6,160.3 85.9,160.0 86.2,160.2 86.5,160.0 86.8,157.0 87.1,155.3 87.4,156.6 87.7,162.0 87.9,160.2 88.2,158.7 88.5,158.4 88.8,159.4 89.1,156.3 89.4,159.8 89.7,161.3 90.0,164.1 90.3,163.2 90.6,164.0 90.9,159.8 91.2,159.8 91.5,160.2 91.7,159.0 92.0,160.4 92.3,162.5 92.6,161.4 92.9,162.2 93.2,160.3 93.5,159.6 93.8,159.3 94.1,159.2 94.4,159.3 94.7,158.5 95.0,159.3 95.3,163.0 95.5,162.8 95.8,163.6 96.1,166.1 96.4,164.5 96.7,165.1 97.0,168.3 97.3,168.3 97.6,169.4 97.9,172.4 98.2,171.5 98.5,173.3 98.8,171.6 99.1,173.1 99.3,170.9 99.6,169.8 99.9,169.4 100.2,170.6 100.5,168.6 100.8,167.4 101.1,167.9 101.4,166.6 101.7,168.4 102.0,170.7 102.3,170.6 102.6,170.3 102.9,169.2 103.1,168.8 103.4,166.2 103.7,168.6 104.0,167.3 104.3,166.6 104.6,163.8 104.9,163.5 105.2,162.8 105.5,159.3 105.8,157.7 106.1,156.5 106.4,157.3 106.7,157.0 106.9,160.3 107.2,161.9 107.5,160.5 107.8,163.9 108.1,163.6 108.4,163.5 108.7,162.6 109.0,165.8 109.3,169.6 109.6,167.2 109.9,166.8 110.2,165.9 110.5,162.6 110.7,162.1 111.0,165.9 111.3,166.3 111.6,164.6 111.9,165.3 112.2,165.7 112.5,166.7 112.8,163.7 113.1,161.2 113.4,164.6 113.7,160.8 114.0,162.3 114.3,158.2 114.5,160.8 114.8,158.6 115.1,159.7 115.4,160.0 115.7,158.2 116.0,159.6 116.3,159.0 116.6,158.4 116.9,156.1 117.2,153.5 117.5,149.9 117.8,149.5 118.1,148.9 118.3,150.1 118.6,151.8 118.9,154.5 119.2,155.0 119.5,154.7 119.8,154.8 120.1,153.7 120.4,156.4 120.7,153.1 121.0,152.6 121.3,150.6 121.6,150.1 121.9,151.9 122.1,152.7 122.4,159.2 122.7,158.8 123.0,158.9 123.3,156.5 123.6,159.9 123.9,160.1 124.2,160.6 124.5,163.0 124.8,165.8 125.1,167.9 125.4,165.8 125.7,163.7 125.9,166.4 126.2,166.5 126.5,165.5 126.8,164.7 127.1,167.5 127.4,168.5 127.7,171.1 128.0,168.8 128.3,163.6 128.6,163.6 128.9,167.6 129.2,165.8 129.5,162.7 129.7,159.7 130.0,159.4 130.3,158.3 130.6,158.1 130.9,156.0 131.2,153.2 131.5,155.1 131.8,156.6 132.1,157.4 132.4,157.9 132.7,157.2 133.0,153.9 133.3,157.4 133.5,154.7 133.8,155.1 134.1,162.8 134.4,163.7 134.7,164.3 135.0,162.7 135.3,160.9 135.6,160.8 135.9,162.8 136.2,160.1 136.5,161.8 136.8,164.8 137.1,166.4 137.3,167.7 137.6,167.8 137.9,168.9 138.2,169.7 138.5,167.6 138.8,165.3 139.1,163.7 139.4,164.4 139.7,166.0 140.0,166.5 140.3,166.7 140.6,164.3 140.9,164.9 141.1,168.0 141.4,170.0 141.7,165.2 142.0,167.5 142.3,170.7 142.6,171.3 142.9,166.6 143.2,166.1 143.5,165.2 143.8,169.2 144.1,173.0 144.4,172.8 144.7,173.9 144.9,172.7 145.2,175.4 145.5,172.6 145.8,168.9 146.1,172.8 146.4,172.0 146.7,172.6 147.0,168.6 147.3,167.9 147.6,165.2 147.9,165.3 148.2,164.3 148.5,158.3 148.7,152.4 149.0,157.0 149.3,155.7 149.6,154.9 149.9,157.7 150.2,159.7 150.5,159.0 150.8,156.2 151.1,154.6 151.4,155.6 151.7,158.4 152.0,164.0 152.3,159.6 152.5,161.0 152.8,163.2 153.1,162.1 153.4,162.2 153.7,162.1 154.0,160.1 154.3,161.3 154.6,164.0 154.9,164.2 155.2,163.9 155.5,166.7 155.8,169.4 156.1,172.0 156.3,169.7 156.6,165.9 156.9,162.4 157.2,164.7 157.5,166.4 157.8,169.6 158.1,164.6 158.4,165.7 158.7,165.7 159.0,166.8 159.3,166.2 159.6,168.8 159.9,170.3 160.1,172.5 160.4,178.4 160.7,177.6 161.0,175.6 161.3,173.0 161.6,168.7 161.9,166.1 162.2,166.1 162.5,164.5 162.8,165.8 163.1,163.5 163.4,164.1 163.7,170.1 163.9,170.1 164.2,169.8 164.5,172.7 164.8,171.3 165.1,168.0 165.4,170.9 165.7,168.8 166.0,166.4 166.3,168.7 166.6,169.7 166.9,172.4 167.2,173.8 167.5,173.8 167.7,170.6 168.0,172.1 168.3,175.9 168.6,183.6 168.9,185.1 169.2,188.1 169.5,187.6 169.8,186.9 170.1,190.5 170.4,189.5 170.7,189.9 171.0,190.4 171.3,191.4 171.5,189.1 171.8,187.5 172.1,186.9 172.4,184.0 172.7,183.8 173.0,183.3 173.3,181.8 173.6,182.4 173.9,185.2 174.2,180.7 174.5,178.2 174.8,181.3 175.1,183.6 175.3,186.0 175.6,189.5 175.9,188.5 176.2,184.8 176.5,183.7 176.8,179.7 177.1,180.6 177.4,179.8 177.7,182.0 178.0,181.8 178.3,179.0 178.6,177.1 178.9,174.3 179.1,175.2 179.4,172.7 179.7,168.8 180.0,167.2 180.3,170.7 180.6,169.8 180.9,169.0 181.2,170.6 181.5,173.1 181.8,175.1 182.1,172.0 182.4,171.5 182.7,166.9 182.9,171.5 183.2,170.3 183.5,165.9 183.8,160.8 184.1,162.1 184.4,157.6 184.7,154.4 185.0,150.9 185.3,150.1 185.6,147.0 185.9,144.2 186.2,145.8 186.5,153.4 186.7,150.0 187.0,146.7 187.3,144.4 187.6,145.4 187.9,146.3 188.2,150.7 188.5,145.8 188.8,145.9 189.1,143.2 189.4,148.5 189.7,153.0 190.0,151.3 190.3,148.9 190.5,145.3 190.8,145.5 191.1,146.4 191.4,146.2 191.7,148.2 192.0,149.8 192.3,148.6 192.6,149.0 192.9,150.0 193.2,149.2 193.5,149.8 193.8,145.1 194.1,145.7 194.3,142.7 194.6,141.5 194.9,139.7 195.2,139.2 195.5,139.6 195.8,139.8 196.1,141.1 196.4,140.5 196.7,138.8 197.0,143.7 197.3,146.2 197.6,148.6 197.9,147.3 198.1,146.1 198.4,147.0 198.7,144.1 199.0,144.9 199.3,143.9 199.6,142.5 199.9,142.9 200.2,141.0 200.5,141.9 200.8,142.1 201.1,142.0 201.4,140.6 201.7,138.0 201.9,139.7 202.2,142.6 202.5,141.4 202.8,145.6 203.1,145.6 203.4,144.5 203.7,148.0 204.0,149.7 204.3,150.3 204.6,150.5 204.9,150.4 205.2,149.6 205.5,148.3 205.7,151.3 206.0,148.9 206.3,149.4 206.6,150.2 206.9,148.0 207.2,149.1 207.5,150.8 207.8,154.4 208.1,151.9 208.4,155.2 208.7,157.7 209.0,161.6 209.3,162.1 209.5,165.5 209.8,162.9 210.1,163.9 210.4,165.9 210.7,164.8 211.0,166.6 211.3,166.4 211.6,164.3 211.9,165.6 212.2,166.0 212.5,167.0 212.8,167.3 213.1,161.0 213.3,164.9 213.6,162.8 213.9,162.4 214.2,163.4 214.5,161.2 214.8,158.5 215.1,160.0 215.4,160.0 215.7,160.9 216.0,159.8 216.3,159.2 216.6,159.1 216.9,158.0 217.1,156.8 217.4,153.8 217.7,155.3 218.0,155.3 218.3,150.4 218.6,151.6 218.9,149.2 219.2,151.1 219.5,149.6 219.8,149.9 220.1,149.1 220.4,149.6 220.7,147.1 220.9,147.2 221.2,147.5 221.5,146.6 221.8,148.0 222.1,152.6 222.4,155.4 222.7,156.6 223.0,153.1 223.3,148.6 223.6,151.2 223.9,150.9 224.2,152.1 224.5,151.6 224.7,154.0 225.0,153.2 225.3,154.6 225.6,156.8 225.9,157.9 226.2,161.6 226.5,160.0 226.8,161.5 227.1,158.3 227.4,156.5 227.7,153.9 228.0,154.6 228.3,151.9 228.5,149.2 228.8,150.0 229.1,149.8 229.4,146.9 229.7,146.6 230.0,148.0 230.3,145.9 230.6,143.5 230.9,145.3 231.2,144.5 231.5,144.5 231.8,142.4 232.1,143.9 232.3,141.4 232.6,139.7 232.9,140.5 233.2,141.7 233.5,144.1 233.8,141.4 234.1,143.4 234.4,143.8 234.7,140.2 235.0,138.7 235.3,138.3 235.6,137.9 235.8,138.5 236.1,141.4 236.4,140.3 236.7,142.7 237.0,138.5 237.3,141.9 237.6,142.5 237.9,142.5 238.2,143.8 238.5,143.8 238.8,142.5 239.1,139.7 239.4,139.5 239.6,139.6 239.9,139.0 240.2,139.1 240.5,140.6 240.8,140.7 241.1,138.4 241.4,138.3 241.7,138.4 242.0,138.8 242.3,137.8 242.6,137.1 242.9,136.4 243.2,137.2 243.4,142.0 243.7,143.2 244.0,143.4 244.3,145.2 244.6,143.9 244.9,145.7 245.2,150.0 245.5,148.3 245.8,148.8 246.1,148.7 246.4,152.1 246.7,152.7 247.0,152.9 247.2,152.6 247.5,150.8 247.8,152.4 248.1,152.8 248.4,147.7 248.7,147.9 249.0,143.5 249.3,148.4 249.6,148.7 249.9,144.9 250.2,142.6 250.5,137.8 250.8,138.7 251.0,138.1 251.3,144.9 251.6,148.8 251.9,147.1 252.2,148.7 252.5,146.0 252.8,146.7 253.1,144.9 253.4,147.2 253.7,150.0 254.0,146.6 254.3,144.8 254.6,144.6 254.8,141.9 255.1,139.0 255.4,135.3 255.7,136.1 256.0,138.1 256.3,137.8 256.6,136.5 256.9,140.3 257.2,146.7 257.5,145.3 257.8,141.5 258.1,140.9 258.4,141.4 258.6,140.7 258.9,139.9 259.2,142.7 259.5,141.7 259.8,137.9 260.1,136.5 260.4,136.7 260.7,134.2 261.0,132.1 261.3,135.0 261.6,130.8 261.9,128.0 262.2,126.7 262.4,125.0 262.7,124.0 263.0,126.1 263.3,123.9 263.6,123.5 263.9,119.6 264.2,121.1 264.5,123.3 264.8,125.9 265.1,122.3 265.4,122.2 265.7,123.7 266.0,127.5 266.2,119.1 266.5,118.6 266.8,120.4 267.1,121.7 267.4,117.7 267.7,118.4 268.0,121.7 268.3,121.7 268.6,116.2 268.9,111.8 269.2,107.1 269.5,109.2 269.8,113.8 270.0,114.9 270.3,116.0 270.6,115.8 270.9,112.6 271.2,114.2 271.5,116.6 271.8,119.9 272.1,117.4 272.4,115.8 272.7,112.6 273.0,116.7 273.3,118.1 273.6,113.6 273.8,112.1 274.1,107.9 274.4,104.4 274.7,101.7 275.0,103.6 275.3,103.8 275.6,102.5 275.9,94.0 276.2,91.2 276.5,91.3 276.8,90.4 277.1,88.7 277.4,89.1 277.6,86.3 277.9,82.0 278.2,72.4 278.5,66.3 278.8,64.8 279.1,67.0 279.4,71.5 279.7,67.4 280.0,62.3 280.3,56.0 280.6,54.5 280.9,54.1 281.2,54.1 281.4,50.4 281.7,58.5 282.0,65.2 282.3,74.5 282.6,76.0 282.9,76.2 283.2,71.4 283.5,71.0 283.8,68.7 284.1,68.9 284.4,70.6 284.7,74.5 285.0,73.3 285.2,73.2 285.5,77.0 285.8,78.9 286.1,82.7 286.4,85.6 286.7,80.8 287.0,79.2 287.3,77.0 287.6,80.3 287.9,82.2 288.2,77.5 288.5,79.8 288.8,81.9 289.0,79.2 289.3,74.5 289.6,69.6 289.9,68.5 290.2,70.6 290.5,69.0 290.8,66.8 291.1,67.4 291.4,68.1 291.7,64.9 292.0,56.8 292.3,63.3 292.6,62.9 292.8,68.8 293.1,68.3 293.4,69.3 293.7,61.0 294.0,58.6 294.3,62.7 294.6,56.2 294.9,62.1 295.2,59.1 295.5,51.5 295.8,49.6 296.1,46.3 296.4,43.8 296.6,44.0 296.9,42.4 297.2,48.4 297.5,45.6 297.8,48.1 298.1,44.2 298.4,45.2 298.7,45.3 299.0,45.8 299.3,48.8 299.6,46.2 299.9,46.9 300.2,50.8 300.4,52.4 300.7,52.8 301.0,50.8 301.3,49.6 301.6,51.2 301.9,49.7 302.2,40.0 302.5,40.8 302.8,52.3 303.1,56.7 303.4,59.0 303.7,54.0 304.0,48.6 304.2,50.4 304.5,49.2 304.8,49.4 305.1,54.3 305.4,53.7 305.7,51.9 306.0,56.0" fill="none" stroke="#6e7681" stroke-width="1.5" stroke-dasharray="3 3"/>
  <polyline points="14.0,223.6 14.3,223.6 14.6,223.6 14.9,223.6 15.2,223.6 15.5,223.6 15.8,223.6 16.0,223.6 16.3,223.6 16.6,223.6 16.9,223.6 17.2,223.6 17.5,223.6 17.8,223.6 18.1,223.6 18.4,223.6 18.7,223.6 19.0,223.6 19.3,223.6 19.6,223.6 19.8,223.6 20.1,223.6 20.4,223.6 20.7,223.6 21.0,223.6 21.3,222.2 21.6,222.2 21.9,219.5 22.2,217.0 22.5,215.9 22.8,216.1 23.1,217.1 23.4,219.5 23.6,217.2 23.9,221.2 24.2,222.2 24.5,221.7 24.8,220.1 25.1,216.8 25.4,214.5 25.7,214.7 26.0,213.1 26.3,215.9 26.6,213.2 26.9,212.9 27.2,214.5 27.4,215.5 27.7,215.1 28.0,215.6 28.3,210.4 28.6,211.6 28.9,211.4 29.2,211.7 29.5,211.8 29.8,211.9 30.1,212.4 30.4,213.4 30.7,214.9 31.0,218.2 31.2,218.4 31.5,218.4 31.8,218.4 32.1,218.4 32.4,218.4 32.7,218.4 33.0,218.4 33.3,218.4 33.6,218.4 33.9,218.4 34.2,218.4 34.5,218.4 34.8,218.4 35.0,218.4 35.3,218.4 35.6,218.4 35.9,218.4 36.2,218.9 36.5,219.5 36.8,219.7 37.1,219.3 37.4,220.7 37.7,222.3 38.0,220.7 38.3,217.4 38.6,217.6 38.8,219.0 39.1,219.4 39.4,221.5 39.7,221.6 40.0,220.2 40.3,220.1 40.6,217.7 40.9,217.8 41.2,216.4 41.5,216.9 41.8,214.2 42.1,216.6 42.4,217.5 42.6,219.7 42.9,218.0 43.2,215.8 43.5,216.8 43.8,213.6 44.1,214.2 44.4,217.2 44.7,217.7 45.0,217.0 45.3,217.2 45.6,212.1 45.9,210.2 46.2,206.7 46.4,203.6 46.7,206.8 47.0,207.8 47.3,213.1 47.6,214.2 47.9,212.2 48.2,213.5 48.5,214.5 48.8,214.7 49.1,214.7 49.4,214.7 49.7,214.7 50.0,214.7 50.2,214.7 50.5,214.7 50.8,214.7 51.1,214.7 51.4,214.7 51.7,214.7 52.0,214.7 52.3,214.7 52.6,214.7 52.9,216.1 53.2,212.4 53.5,212.3 53.8,212.3 54.0,211.1 54.3,208.5 54.6,206.3 54.9,206.3 55.2,206.6 55.5,205.3 55.8,205.1 56.1,206.6 56.4,205.7 56.7,203.0 57.0,202.1 57.3,198.3 57.6,197.4 57.8,198.0 58.1,197.8 58.4,198.5 58.7,200.6 59.0,199.0 59.3,200.6 59.6,201.7 59.9,202.1 60.2,201.3 60.5,199.8 60.8,199.2 61.1,203.7 61.4,203.9 61.6,203.9 61.9,203.9 62.2,203.9 62.5,203.9 62.8,203.9 63.1,203.9 63.4,203.9 63.7,203.9 64.0,203.9 64.3,203.9 64.6,203.9 64.9,203.9 65.2,203.9 65.4,203.9 65.7,205.1 66.0,201.6 66.3,201.9 66.6,197.3 66.9,198.2 67.2,198.0 67.5,197.4 67.8,199.1 68.1,202.6 68.4,204.5 68.7,202.0 69.0,202.9 69.2,203.4 69.5,199.6 69.8,198.1 70.1,195.9 70.4,194.0 70.7,195.7 71.0,195.2 71.3,194.5 71.6,194.4 71.9,197.3 72.2,196.6 72.5,203.0 72.8,203.2 73.0,203.2 73.3,203.2 73.6,203.2 73.9,203.2 74.2,203.2 74.5,203.2 74.8,203.2 75.1,203.2 75.4,203.2 75.7,203.2 76.0,203.2 76.3,203.2 76.6,203.2 76.8,202.0 77.1,202.5 77.4,203.0 77.7,202.2 78.0,204.8 78.3,207.7 78.6,205.8 78.9,206.5 79.2,205.7 79.5,203.4 79.8,201.8 80.1,202.6 80.4,202.2 80.6,203.8 80.9,204.5 81.2,203.1 81.5,203.3 81.8,207.8 82.1,208.0 82.4,208.0 82.7,208.0 83.0,208.0 83.3,208.0 83.6,208.0 83.9,208.0 84.2,208.0 84.4,208.0 84.7,208.0 85.0,208.0 85.3,208.0 85.6,208.0 85.9,208.0 86.2,208.0 86.5,208.0 86.8,208.0 87.1,208.0 87.4,208.0 87.7,208.0 87.9,208.0 88.2,208.0 88.5,208.0 88.8,208.0 89.1,208.0 89.4,208.0 89.7,208.0 90.0,208.0 90.3,208.0 90.6,208.0 90.9,208.0 91.2,208.0 91.5,208.0 91.7,208.0 92.0,208.0 92.3,208.0 92.6,208.0 92.9,208.0 93.2,208.0 93.5,208.0 93.8,208.0 94.1,208.0 94.4,208.0 94.7,208.0 95.0,208.0 95.3,208.0 95.5,208.0 95.8,208.0 96.1,208.0 96.4,208.0 96.7,208.0 97.0,208.0 97.3,208.0 97.6,208.0 97.9,208.0 98.2,208.0 98.5,208.0 98.8,208.0 99.1,208.0 99.3,208.0 99.6,208.0 99.9,208.0 100.2,208.0 100.5,208.0 100.8,208.0 101.1,208.0 101.4,208.0 101.7,208.0 102.0,208.0 102.3,208.0 102.6,208.0 102.9,208.0 103.1,208.0 103.4,208.0 103.7,210.1 104.0,209.2 104.3,208.6 104.6,206.8 104.9,206.0 105.2,205.0 105.5,202.3 105.8,200.6 106.1,199.5 106.4,199.8 106.7,200.0 106.9,202.3 107.2,203.5 107.5,202.8 107.8,205.6 108.1,205.7 108.4,205.7 108.7,205.7 109.0,205.7 109.3,205.7 109.6,205.7 109.9,205.7 110.2,205.7 110.5,205.7 110.7,205.7 111.0,205.7 111.3,205.7 111.6,205.7 111.9,205.7 112.2,205.7 112.5,205.7 112.8,205.7 113.1,205.7 113.4,205.7 113.7,205.7 114.0,206.6 114.3,203.2 114.5,205.3 114.8,204.0 115.1,204.9 115.4,205.6 115.7,204.1 116.0,205.4 116.3,204.8 116.6,204.3 116.9,202.1 117.2,200.3 117.5,197.2 117.8,196.9 118.1,196.9 118.3,197.9 118.6,199.6 118.9,202.1 119.2,202.5 119.5,201.9 119.8,201.6 120.1,200.7 120.4,202.8 120.7,202.9 121.0,202.9 121.3,202.9 121.6,202.9 121.9,202.9 122.1,202.9 122.4,202.9 122.7,202.9 123.0,202.9 123.3,202.9 123.6,202.9 123.9,202.9 124.2,202.9 124.5,202.9 124.8,202.9 125.1,202.9 125.4,202.9 125.7,202.9 125.9,202.9 126.2,202.9 126.5,202.9 126.8,202.9 127.1,202.9 127.4,202.9 127.7,202.9 128.0,202.9 128.3,202.9 128.6,202.9 128.9,202.9 129.2,202.9 129.5,202.9 129.7,202.9 130.0,202.6 130.3,201.2 130.6,201.0 130.9,199.0 131.2,196.5 131.5,198.2 131.8,199.0 132.1,199.4 132.4,200.0 132.7,199.4 133.0,197.0 133.3,199.5 133.5,197.1 133.8,197.6 134.1,203.9 134.4,204.1 134.7,204.1 135.0,204.1 135.3,204.1 135.6,204.1 135.9,204.1 136.2,204.1 136.5,204.1 136.8,204.1 137.1,204.1 137.3,204.1 137.6,204.1 137.9,204.1 138.2,204.1 138.5,204.1 138.8,204.1 139.1,204.1 139.4,204.1 139.7,204.1 140.0,204.1 140.3,204.1 140.6,204.1 140.9,204.1 141.1,204.1 141.4,204.1 141.7,204.1 142.0,204.1 142.3,204.1 142.6,204.1 142.9,204.1 143.2,204.1 143.5,204.1 143.8,204.1 144.1,204.1 144.4,204.1 144.7,204.1 144.9,204.1 145.2,204.1 145.5,204.1 145.8,204.1 146.1,204.1 146.4,204.1 146.7,204.1 147.0,204.1 147.3,204.1 147.6,204.1 147.9,204.1 148.2,204.1 148.5,199.3 148.7,194.3 149.0,198.3 149.3,197.7 149.6,197.5 149.9,199.5 150.2,201.2 150.5,200.6 150.8,198.0 151.1,196.9 151.4,198.1 151.7,200.5 152.0,204.7 152.3,204.9 152.5,204.9 152.8,204.9 153.1,204.9 153.4,204.9 153.7,204.9 154.0,204.9 154.3,204.9 154.6,204.9 154.9,204.9 155.2,204.9 155.5,204.9 155.8,204.9 156.1,204.9 156.3,204.9 156.6,204.9 156.9,204.9 157.2,204.9 157.5,204.9 157.8,204.9 158.1,204.9 158.4,204.9 158.7,204.9 159.0,204.9 159.3,204.9 159.6,204.9 159.9,204.9 160.1,204.9 160.4,204.9 160.7,204.9 161.0,204.9 161.3,204.9 161.6,204.9 161.9,204.9 162.2,204.9 162.5,204.9 162.8,204.9 163.1,204.9 163.4,205.6 163.7,210.1 163.9,209.8 164.2,209.8 164.5,211.8 164.8,212.0 165.1,212.0 165.4,212.0 165.7,212.0 166.0,212.0 166.3,212.0 166.6,212.0 166.9,212.0 167.2,212.0 167.5,212.0 167.7,212.0 168.0,212.0 168.3,212.0 168.6,212.0 168.9,212.0 169.2,212.0 169.5,212.0 169.8,212.0 170.1,212.0 170.4,212.0 170.7,212.0 171.0,212.0 171.3,212.0 171.5,212.0 171.8,212.0 172.1,212.0 172.4,212.0 172.7,212.0 173.0,212.0 173.3,212.0 173.6,212.0 173.9,212.0 174.2,212.0 174.5,212.0 174.8,214.4 175.1,216.4 175.3,218.4 175.6,218.6 175.9,218.6 176.2,218.6 176.5,218.6 176.8,218.6 177.1,218.6 177.4,218.6 177.7,218.6 178.0,218.6 178.3,218.6 178.6,218.6 178.9,216.8 179.1,217.8 179.4,215.7 179.7,212.2 180.0,211.4 180.3,214.5 180.6,213.6 180.9,213.0 181.2,213.9 181.5,216.3 181.8,217.7 182.1,215.0 182.4,214.3 182.7,210.5 182.9,214.5 183.2,213.3 183.5,209.7 183.8,205.7 184.1,207.0 184.4,203.9 184.7,201.8 185.0,199.1 185.3,198.7 185.6,196.0 185.9,193.8 186.2,194.7 186.5,200.3 186.7,197.2 187.0,194.9 187.3,192.8 187.6,194.1 187.9,195.1 188.2,198.6 188.5,194.6 188.8,194.5 189.1,192.8 189.4,197.0 189.7,200.8 190.0,200.9 190.3,200.9 190.5,200.9 190.8,200.9 191.1,200.9 191.4,200.9 191.7,200.9 192.0,200.9 192.3,200.9 192.6,200.9 192.9,200.9 193.2,200.9 193.5,200.9 193.8,200.9 194.1,200.9 194.3,200.9 194.6,199.8 194.9,198.0 195.2,197.0 195.5,197.7 195.8,197.3 196.1,197.9 196.4,198.0 196.7,196.2 197.0,199.6 197.3,201.9 197.6,202.0 197.9,202.0 198.1,202.0 198.4,202.0 198.7,202.0 199.0,202.0 199.3,202.0 199.6,202.0 199.9,202.0 200.2,202.0 200.5,202.0 200.8,202.0 201.1,202.0 201.4,202.0 201.7,202.0 201.9,203.3 202.2,205.2 202.5,204.2 202.8,207.5 203.1,207.7 203.4,207.7 203.7,207.7 204.0,207.7 204.3,207.7 204.6,207.7 204.9,207.7 205.2,207.7 205.5,207.7 205.7,207.7 206.0,207.7 206.3,207.7 206.6,207.7 206.9,207.7 207.2,207.7 207.5,207.7 207.8,207.7 208.1,207.7 208.4,207.7 208.7,207.7 209.0,207.7 209.3,207.7 209.5,207.7 209.8,207.7 210.1,207.7 210.4,207.7 210.7,207.7 211.0,207.7 211.3,207.7 211.6,207.7 211.9,207.7 212.2,207.7 212.5,207.7 212.8,207.7 213.1,207.7 213.3,207.7 213.6,207.7 213.9,207.7 214.2,207.7 214.5,207.7 214.8,207.7 215.1,209.2 215.4,208.9 215.7,209.2 216.0,207.9 216.3,207.9 216.6,207.4 216.9,206.2 217.1,205.1 217.4,202.9 217.7,204.6 218.0,205.1 218.3,201.5 218.6,202.6 218.9,200.6 219.2,202.2 219.5,200.7 219.8,200.6 220.1,199.9 220.4,200.0 220.7,197.6 220.9,197.8 221.2,197.9 221.5,197.1 221.8,198.2 222.1,201.4 222.4,201.6 222.7,201.6 223.0,201.6 223.3,201.6 223.6,201.6 223.9,201.6 224.2,201.6 224.5,201.6 224.7,201.6 225.0,201.6 225.3,201.6 225.6,201.6 225.9,201.6 226.2,201.6 226.5,201.6 226.8,201.6 227.1,201.6 227.4,201.6 227.7,201.6 228.0,201.6 228.3,201.6 228.5,201.6 228.8,201.6 229.1,201.6 229.4,201.6 229.7,201.5 230.0,202.3 230.3,200.8 230.6,199.4 230.9,200.3 231.2,200.1 231.5,199.8 231.8,198.5 232.1,199.2 232.3,197.0 232.6,195.7 232.9,196.8 233.2,198.0 233.5,199.7 233.8,197.9 234.1,199.5 234.4,199.4 234.7,196.1 235.0,194.8 235.3,194.4 235.6,194.5 235.8,195.1 236.1,197.5 236.4,197.3 236.7,198.6 237.0,194.9 237.3,197.0 237.6,197.7 237.9,198.2 238.2,198.7 238.5,198.9 238.8,198.9 239.1,198.9 239.4,198.9 239.6,198.9 239.9,198.9 240.2,198.9 240.5,198.9 240.8,198.9 241.1,198.9 241.4,198.9 241.7,198.9 242.0,198.9 242.3,198.9 242.6,198.9 242.9,198.3 243.2,198.7 243.4,202.6 243.7,202.7 244.0,202.7 244.3,202.7 244.6,202.7 244.9,202.7 245.2,202.7 245.5,202.7 245.8,202.7 246.1,202.7 246.4,202.7 246.7,202.7 247.0,202.7 247.2,202.7 247.5,202.7 247.8,202.7 248.1,202.7 248.4,202.7 248.7,202.7 249.0,202.7 249.3,202.7 249.6,202.7 249.9,202.7 250.2,202.7 250.5,199.2 250.8,199.7 251.0,198.9 251.3,204.1 251.6,207.1 251.9,207.2 252.2,207.2 252.5,207.2 252.8,207.2 253.1,207.2 253.4,207.2 253.7,207.2 254.0,207.2 254.3,207.2 254.6,207.2 254.8,207.2 255.1,207.2 255.4,207.2 255.7,207.5 256.0,209.1 256.3,208.4 256.6,207.1 256.9,209.9 257.2,214.7 257.5,214.9 257.8,214.9 258.1,214.9 258.4,214.9 258.6,214.9 258.9,214.9 259.2,214.9 259.5,214.9 259.8,214.9 260.1,214.9 260.4,214.9 260.7,214.9 261.0,213.4 261.3,215.0 261.6,212.3 261.9,210.7 262.2,210.2 262.4,209.1 262.7,208.3 263.0,209.4 263.3,207.7 263.6,206.9 263.9,204.0 264.2,205.0 264.5,206.9 264.8,208.3 265.1,205.5 265.4,205.3 265.7,206.6 266.0,209.6 266.2,209.8 266.5,209.9 266.8,211.0 267.1,211.8 267.4,209.2 267.7,209.9 268.0,212.5 268.3,212.1 268.6,208.3 268.9,205.7 269.2,202.1 269.5,203.7 269.8,206.6 270.0,207.3 270.3,208.3 270.6,208.0 270.9,205.5 271.2,206.7 271.5,208.5 271.8,208.7 272.1,208.7 272.4,208.7 272.7,208.7 273.0,208.7 273.3,208.7 273.6,208.7 273.8,208.7 274.1,208.7 274.4,208.7 274.7,206.9 275.0,207.7 275.3,207.9 275.6,207.5 275.9,202.6 276.2,200.4 276.5,200.9 276.8,200.0 277.1,199.3 277.4,200.0 277.6,198.2 277.9,195.8 278.2,189.9 278.5,186.0 278.8,185.1 279.1,186.3 279.4,188.9 279.7,186.0 280.0,183.0 280.3,179.7 280.6,178.4 280.9,178.0 281.2,177.7 281.4,175.8 281.7,180.6 282.0,184.2 282.3,189.7 282.6,189.9 282.9,189.9 283.2,189.9 283.5,189.9 283.8,189.9 284.1,189.9 284.4,189.9 284.7,189.9 285.0,189.9 285.2,189.9 285.5,189.9 285.8,189.9 286.1,189.9 286.4,189.9 286.7,189.9 287.0,189.9 287.3,189.9 287.6,189.9 287.9,189.9 288.2,189.9 288.5,189.9 288.8,189.9 289.0,189.9 289.3,189.9 289.6,189.9 289.9,189.9 290.2,191.9 290.5,191.5 290.8,189.8 291.1,190.6 291.4,191.4 291.7,189.7 292.0,185.1 292.3,189.2 292.6,189.0 292.8,192.3 293.1,192.5 293.4,193.5 293.7,193.7 294.0,193.7 294.3,193.7 294.6,193.7 294.9,197.7 295.2,195.7 295.5,190.9 295.8,189.8 296.1,188.0 296.4,186.3 296.6,186.4 296.9,185.1 297.2,188.8 297.5,187.7 297.8,188.6 298.1,186.2 298.4,186.6 298.7,186.3 299.0,187.1 299.3,188.5 299.6,188.7 299.9,188.7 300.2,188.7 300.4,188.7 300.7,188.7 301.0,188.7 301.3,188.7 301.6,188.7 301.9,188.7 302.2,188.7 302.5,188.9 302.8,194.8 303.1,197.1 303.4,197.3 303.7,197.3 304.0,197.3 304.2,197.3 304.5,197.3 304.8,197.3 305.1,197.3 305.4,197.3 305.7,197.3 306.0,197.3" fill="none" stroke="#3fb950" stroke-width="2"/>
  <text x="306" y="226" fill="#3fb950" font-size="12" text-anchor="end">×1.17 on regime_switch</text>
</svg>
