<svg xmlns="http://www.w3.org/2000/svg" viewBox="0 0 320 240" font-family="system-ui,sans-serif">
  <rect width="320" height="240" fill="#0f1117"/>
  <text x="14" y="22" fill="#e8e8e8" font-size="13" font-weight="600">RSI Mean-Reversion (Connors RSI-2)</text>
  <polyline points="14.0,223.6 14.3,225.4 14.6,226.0 14.9,223.4 15.2,222.9 15.5,221.0 15.8,219.8 16.0,220.9 16.3,219.7 16.6,220.2 16.9,220.8 17.2,220.5 17.5,223.3 17.8,220.9 18.1,222.1 18.4,220.0 18.7,219.6 19.0,216.4 19.3,217.7 19.6,218.2 19.8,217.4 20.1,221.7 20.4,219.9 20.7,216.7 21.0,214.3 21.3,212.6 21.6,212.8 21.9,210.0 22.2,207.6 22.5,206.6 22.8,206.5 23.1,207.2 23.4,209.7 23.6,206.9 23.9,211.4 24.2,212.1 24.5,211.6 24.8,209.7 25.1,205.8 25.4,203.5 25.7,204.0 26.0,202.3 26.3,204.9 26.6,201.7 26.9,201.9 27.2,203.3 27.4,204.5 27.7,204.5 28.0,205.3 28.3,200.1 28.6,201.6 28.9,201.4 29.2,201.2 29.5,201.0 29.8,200.8 30.1,201.7 30.4,202.9 30.7,204.6 31.0,207.7 31.2,207.1 31.5,204.9 31.8,205.9 32.1,207.0 32.4,207.6 32.7,208.4 33.0,211.3 33.3,208.3 33.6,207.3 33.9,208.7 34.2,207.9 34.5,208.7 34.8,209.1 35.0,208.2 35.3,206.0 35.6,202.6 35.9,198.6 36.2,199.1 36.5,200.1 36.8,199.7 37.1,199.3 37.4,200.8 37.7,202.1 38.0,200.1 38.3,196.3 38.6,196.7 38.8,198.0 39.1,198.5 39.4,200.6 39.7,201.1 40.0,200.1 40.3,200.1 40.6,197.2 40.9,196.7 41.2,195.5 41.5,195.7 41.8,192.5 42.1,195.2 42.4,195.8 42.6,198.3 42.9,196.3 43.2,194.3 43.5,195.3 43.8,191.3 44.1,191.9 44.4,195.0 44.7,195.5 45.0,194.5 45.3,194.9 45.6,189.5 45.9,187.4 46.2,183.0 46.4,179.5 46.7,183.5 47.0,184.3 47.3,190.7 47.6,192.0 47.9,189.3 48.2,191.1 48.5,192.5 48.8,191.6 49.1,189.6 49.4,190.3 49.7,190.8 50.0,188.7 50.2,188.0 50.5,188.6 50.8,187.7 51.1,187.3 51.4,186.6 51.7,181.6 52.0,182.2 52.3,183.4 52.6,179.8 52.9,181.4 53.2,176.9 53.5,177.3 53.8,176.9 54.0,174.9 54.3,171.7 54.6,168.9 54.9,169.3 55.2,170.1 55.5,169.1 55.8,168.6 56.1,170.1 56.4,168.9 56.7,166.1 57.0,165.5 57.3,161.1 57.6,159.9 57.8,160.1 58.1,159.7 58.4,161.1 58.7,163.7 59.0,162.3 59.3,164.4 59.6,165.2 59.9,165.3 60.2,164.1 60.5,162.7 60.8,162.4 61.1,167.4 61.4,167.8 61.6,169.7 61.9,169.9 62.2,167.1 62.5,164.8 62.8,164.1 63.1,162.6 63.4,166.4 63.7,165.7 64.0,163.9 64.3,165.7 64.6,164.4 64.9,165.3 65.2,162.4 65.4,159.3 65.7,160.6 66.0,156.4 66.3,156.8 66.6,150.8 66.9,152.0 67.2,151.7 67.5,150.9 67.8,152.9 68.1,157.6 68.4,159.6 68.7,156.5 69.0,157.2 69.2,158.0 69.5,153.6 69.8,152.0 70.1,149.8 70.4,147.2 70.7,149.7 71.0,149.2 71.3,148.6 71.6,148.9 71.9,151.8 72.2,150.3 72.5,158.1 72.8,159.9 73.0,161.4 73.3,162.1 73.6,160.4 73.9,157.2 74.2,153.9 74.5,152.4 74.8,151.6 75.1,156.3 75.4,154.1 75.7,149.1 76.0,148.4 76.3,148.2 76.6,147.0 76.8,145.8 77.1,145.8 77.4,146.8 77.7,146.3 78.0,149.2 78.3,153.0 78.6,150.5 78.9,151.5 79.2,150.2 79.5,147.4 79.8,145.2 80.1,146.6 80.4,146.2 80.6,148.7 80.9,149.0 81.2,147.2 81.5,147.4 81.8,153.1 82.1,157.5 82.4,159.1 82.7,156.5 83.0,156.2 83.3,155.9 83.6,158.5 83.9,158.2 84.2,162.6 84.4,161.9 84.7,159.5 85.0,161.1 85.3,158.9 85.6,160.3 85.9,160.0 86.2,160.2 86.5,160.0 86.8,157.0 87.1,155.3 87.4,156.6 87.7,162.0 87.9,160.2 88.2,158.7 88.5,158.4 88.8,159.4 89.1,156.3 89.4,159.8 89.7,161.3 90.0,164.1 90.3,163.2 90.6,164.0 90.9,159.8 91.2,159.8 91.5,160.2 91.7,159.0 92.0,160.4 92.3,162.5 92.6,161.4 92.9,162.2 93.2,160.3 93.5,159.6 93.8,159.3 94.1,159.2 94.4,159.3 94.7,158.5 95.0,159.3 95.3,163.0 95.5,162.8 95.8,163.6 96.1,166.1 96.4,164.5 96.7,165.1 97.0,168.3 97.3,168.3 97.6,169.4 97.9,172.4 98.2,171.5 98.5,173.3 98.8,171.6 99.1,173.1 99.3,170.9 99.6,169.8 99.9,169.4 100.2,170.6 100.5,168.6 100.8,167.4 101.1,167.9 101.4,166.6 101.7,168.4 102.0,170.7 102.3,170.6 102.6,170.3 102.9,169.2 103.1,168.8 103.4,166.2 103.7,168.6 104.0,167.3 104.3,166.6 104.6,163.8 104.9,163.5 105.2,162.8 105.5,159.3 105.8,157.7 106.1,156.5 106.4,157.3 106.7,157.0 106.9,160.3 107.2,161.9 107.5,160.5 107.8,163.9 108.1,163.6 108.4,163.5 108.7,162.6 109.0,165.8 109.3,169.6 109.6,167.2 109.9,166.8 110.2,165.9 110.5,162.6 110.7,162.1 111.0,165.9 111.3,166.3 111.6,164.6 111.9,165.3 112.2,165.7 112.5,166.7 112.8,163.7 113.1,161.2 113.4,164.6 113.7,160.8 114.0,162.3 114.3,158.2 114.5,160.8 114.8,158.6 115.1,159.7 115.4,160.0 115.7,158.2 116.0,159.6 116.3,159.0 116.6,158.4 116.9,156.1 117.2,153.5 117.5,149.9 117.8,149.5 118.1,148.9 118.3,150.1 118.6,151.8 118.9,154.5 119.2,155.0 119.5,154.7 119.8,154.8 120.1,153.7 120.4,156.4 120.7,153.1 121.0,152.6 121.3,150.6 121.6,150.1 121.9,151.9 122.1,152.7 122.4,159.2 122.7,158.8 123.0,158.9 123.3,156.5 123.6,159.9 123.9,160.1 124.2,160.6 124.5,163.0 124.8,165.8 125.1,167.9 125.4,165.8 125.7,163.7 125.9,166.4 126.2,166.5 126.5,165.5 126.8,164.7 127.1,167.5 127.4,168.5 127.7,171.1 128.0,168.8 128.3,163.6 128.6,163.6 128.9,167.6 129.2,165.8 129.5,162.7 129.7,159.7 130.0,159.4 130.3,158.3 130.6,158.1 130.9,156.0 131.2,153.2 131.5,155.1 131.8,156.6 132.1,157.4 132.4,157.9 132.7,157.2 133.0,153.9 133.3,157.4 133.5,154.7 133.8,155.1 134.1,162.8 134.4,163.7 134.7,164.3 135.0,162.7 135.3,160.9 135.6,160.8 135.9,162.8 136.2,160.1 136.5,161.8 136.8,164.8 137.1,166.4 137.3,167.7 137.6,167.8 137.9,168.9 138.2,169.7 138.5,167.6 138.8,165.3 139.1,163.7 139.4,164.4 139.7,166.0 140.0,166.5 140.3,166.7 140.6,164.3 140.9,164.9 141.1,168.0 141.4,170.0 141.7,165.2 142.0,167.5 142.3,170.7 142.6,171.3 142.9,166.6 143.2,166.1 143.5,165.2 143.8,169.2 144.1,173.0 144.4,172.8 144.7,173.9 144.9,172.7 145.2,175.4 145.5,172.6 145.8,168.9 146.1,172.8 146.4,172.0 146.7,172.6 147.0,168.6 147.3,167.9 147.6,165.2 147.9,165.3 148.2,164.3 148.5,158.3 148.7,152.4 149.0,157.0 149.3,155.7 149.6,154.9 149.9,157.7 150.2,159.7 150.5,159.0 150.8,156.2 151.1,154.6 151.4,155.6 151.7,158.4 152.0,164.0 152.3,159.6 152.5,161.0 152.8,163.2 153.1,162.1 153.4,162.2 153.7,162.1 154.0,160.1 154.3,161.3 154.6,164.0 154.9,164.2 155.2,163.9 155.5,166.7 155.8,169.4 156.1,172.0 156.3,169.7 156.6,165.9 156.9,162.4 157.2,164.7 157.5,166.4 157.8,169.6 158.1,164.6 158.4,165.7 158.7,165.7 159.0,166.8 159.3,166.2 159.6,168.8 159.9,170.3 160.1,172.5 160.4,178.4 160.7,177.6 161.0,175.6 161.3,173.0 161.6,168.7 161.9,166.1 162.2,166.1 162.5,164.5 162.8,165.8 163.1,163.5 163.4,164.1 163.7,170.1 163.9,170.1 164.2,169.8 164.5,172.7 164.8,171.3 165.1,168.0 165.4,170.9 165.7,168.8 166.0,166.4 166.3,168.7 166.6,169.7 166.9,172.4 167.2,173.8 167.5,173.8 167.7,170.6 168.0,172.1 168.3,175.9 168.6,183.6 168.9,185.1 169.2,188.1 169.5,187.6 169.8,186.9 170.1,190.5 170.4,189.5 170.7,189.9 171.0,190.4 171.3,191.4 171.5,189.1 171.8,187.5 172.1,186.9 172.4,184.0 172.7,183.8 173.0,183.3 173.3,181.8 173.6,182.4 173.9,185.2 174.2,180.7 174.5,178.2 174.8,181.3 175.1,183.6 175.3,186.0 175.6,189.5 175.9,188.5 176.2,184.8 176.5,183.7 176.8,179.7 177.1,180.6 177.4,179.8 177.7,182.0 178.0,181.8 178.3,179.0 178.6,177.1 178.9,174.3 179.1,175.2 179.4,172.7 179.7,168.8 180.0,167.2 180.3,170.7 180.6,169.8 180.9,169.0 181.2,170.6 181.5,173.1 181.8,175.1 182.1,172.0 182.4,171.5 182.7,166.9 182.9,171.5 183.2,170.3 183.5,165.9 183.8,160.8 184.1,162.1 184.4,157.6 184.7,154.4 185.0,150.9 185.3,150.1 185.6,147.0 185.9,144.2 186.2,145.8 186.5,153.4 186.7,150.0 187.0,146.7 187.3,144.4 187.6,145.4 187.9,146.3 188.2,150.7 188.5,145.8 188.8,145.9 189.1,143.2 189.4,148.5 189.7,153.0 190.0,151.3 190.3,148.9 190.5,145.3 190.8,145.5 191.1,146.4 191.4,146.2 191.7,148.2 192.0,149.8 192.3,148.6 192.6,149.0 192.9,150.0 193.2,149.2 193.5,149.8 193.8,145.1 194.1,145.7 194.3,142.7 194.6,141.5 194.9,139.7 195.2,139.2 195.5,139.6 195.8,139.8 196.1,141.1 196.4,140.5 196.7,138.8 197.0,143.7 197.3,146.2 197.6,148.6 197.9,147.3 198.1,146.1 198.4,147.0 198.7,144.1 199.0,144.9 199.3,143.9 199.6,142.5 199.9,142.9 200.2,141.0 200.5,141.9 200.8,142.1 201.1,142.0 201.4,140.6 201.7,138.0 201.9,139.7 202.2,142.6 202.5,141.4 202.8,145.6 203.1,145.6 203.4,144.5 203.7,148.0 204.0,149.7 204.3,150.3 204.6,150.5 204.9,150.4 205.2,149.6 205.5,148.3 205.7,151.3 206.0,148.9 206.3,149.4 206.6,150.2 206.9,148.0 207.2,149.1 207.5,150.8 207.8,154.4 208.1,151.9 208.4,155.2 208.7,157.7 209.0,161.6 209.3,162.1 209.5,165.5 209.8,162.9 210.1,163.9 210.4,165.9 210.7,164.8 211.0,166.6 211.3,166.4 211.6,164.3 211.9,165.6 212.2,166.0 212.5,167.0 212.8,167.3 213.1,161.0 213.3,164.9 213.6,162.8 213.9,162.4 214.2,163.4 214.5,161.2 214.8,158.5 215.1,160.0 215.4,160.0 215.7,160.9 216.0,159.8 216.3,159.2 216.6,159.1 216.9,158.0 217.1,156.8 217.4,153.8 217.7,155.3 218.0,155.3 218.3,150.4 218.6,151.6 218.9,149.2 219.2,151.1 219.5,149.6 219.8,149.9 220.1,149.1 220.4,149.6 220.7,147.1 220.9,147.2 221.2,147.5 221.5,146.6 221.8,148.0 222.1,152.6 222.4,155.4 222.7,156.6 223.0,153.1 223.3,148.6 223.6,151.2 223.9,150.9 224.2,152.1 224.5,151.6 224.7,154.0 225.0,153.2 225.3,154.6 225.6,156.8 225.9,157.9 226.2,161.6 226.5,160.0 226.8,161.5 227.1,158.3 227.4,156.5 227.7,153.9 228.0,154.6 228.3,151.9 228.5,149.2 228.8,150.0 229.1,149.8 229.4,146.9 229.7,146.6 230.0,148.0 230.3,145.9 230.6,143.5 230.9,145.3 231.2,144.5 231.5,144.5 231.8,142.4 232.1,143.9 232.3,141.4 232.6,139.7 232.9,140.5 233.2,141.7 233.5,144.1 233.8,141.4 234.1,143.4 234.4,143.8 234.7,140.2 235.0,138.7 235.3,138.3 235.6,137.9 235.8,138.5 236.1,141.4 236.4,140.3 236.7,142.7 237.0,138.5 237.3,141.9 237.6,142.5 237.9,142.5 238.2,143.8 238.5,143.8 238.8,142.5 239.1,139.7 239.4,139.5 239.6,139.6 239.9,139.0 240.2,139.1 240.5,140.6 240.8,140.7 241.1,138.4 241.4,138.3 241.7,138.4 242.0,138.8 242.3,137.8 242.6,137.1 242.9,136.4 243.2,137.2 243.4,142.0 243.7,143.2 244.0,143.4 244.3,145.2 244.6,143.9 244.9,145.7 245.2,150.0 245.5,148.3 245.8,148.8 246.1,148.7 246.4,152.1 246.7,152.7 247.0,152.9 247.2,152.6 247.5,150.8 247.8,152.4 248.1,152.8 248.4,147.7 248.7,147.9 249.0,143.5 249.3,148.4 249.6,148.7 249.9,144.9 250.2,142.6 250.5,137.8 250.8,138.7 251.0,138.1 251.3,144.9 251.6,148.8 251.9,147.1 252.2,148.7 252.5,146.0 252.8,146.7 253.1,144.9 253.4,147.2 253.7,150.0 254.0,146.6 254.3,144.8 254.6,144.6 254.8,141.9 255.1,139.0 255.4,135.3 255.7,136.1 256.0,138.1 256.3,137.8 256.6,136.5 256.9,140.3 257.2,146.7 257.5,145.3 257.8,141.5 258.1,140.9 258.4,141.4 258.6,140.7 258.9,139.9 259.2,142.7 259.5,141.7 259.8,137.9 260.1,136.5 260.4,136.7 260.7,134.2 261.0,132.1 261.3,135.0 261.6,130.8 261.9,128.0 262.2,126.7 262.4,125.0 262.7,124.0 263.0,126.1 263.3,123.9 263.6,123.5 263.9,119.6 264.2,121.1 264.5,123.3 264.8,125.9 265.1,122.3 265.4,122.2 265.7,123.7 266.0,127.5 266.2,119.1 266.5,118.6 266.8,120.4 267.1,121.7 267.4,117.7 267.7,118.4 268.0,121.7 268.3,121.7 268.6,116.2 268.9,111.8 269.2,107.1 269.5,109.2 269.8,113.8 270.0,114.9 270.3,116.0 270.6,115.8 270.9,112.6 271.2,114.2 271.5,116.6 271.8,119.9 272.1,117.4 272.4,115.8 272.7,112.6 273.0,116.7 273.3,118.1 273.6,113.6 273.8,112.1 274.1,107.9 274.4,104.4 274.7,101.7 275.0,103.6 275.3,103.8 275.6,102.5 275.9,94.0 276.2,91.2 276.5,91.3 276.8,90.4 277.1,88.7 277.4,89.1 277.6,86.3 277.9,82.0 278.2,72.4 278.5,66.3 278.8,64.8 279.1,67.0 279.4,71.5 279.7,67.4 280.0,62.3 280.3,56.0 280.6,54.5 280.9,54.1 281.2,54.1 281.4,50.4 281.7,58.5 282.0,65.2 282.3,74.5 282.6,76.0 282.9,76.2 283.2,71.4 283.5,71.0 283.8,68.7 284.1,68.9 284.4,70.6 284.7,74.5 285.0,73.3 285.2,73.2 285.5,77.0 285.8,78.9 286.1,82.7 286.4,85.6 286.7,80.8 287.0,79.2 287.3,77.0 287.6,80.3 287.9,82.2 288.2,77.5 288.5,79.8 288.8,81.9 289.0,79.2 289.3,74.5 289.6,69.6 289.9,68.5 290.2,70.6 290.5,69.0 290.8,66.8 291.1,67.4 291.4,68.1 291.7,64.9 292.0,56.8 292.3,63.3 292.6,62.9 292.8,68.8 293.1,68.3 293.4,69.3 293.7,61.0 294.0,58.6 294.3,62.7 294.6,56.2 294.9,62.1 295.2,59.1 295.5,51.5 295.8,49.6 296.1,46.3 296.4,43.8 296.6,44.0 296.9,42.4 297.2,48.4 297.5,45.6 297.8,48.1 298.1,44.2 298.4,45.2 298.7,45.3 299.0,45.8 299.3,48.8 299.6,46.2 299.9,46.9 300.2,50.8 300.4,52.4 300.7,52.8 301.0,50.8 301.3,49.6 301.6,51.2 301.9,49.7 302.2,40.0 302.5,40.8 302.8,52.3 303.1,56.7 303.4,59.0 303.7,54.0 304.0,48.6 304.2,50.4 304.5,49.2 304.8,49.4 305.1,54.3 305.4,53.7 305.7,51.9 306.0,56.0" fill="none" stroke="#6e7681" stroke-width="1.5" stroke-dasharray="3 3"/>
  <polyline points="14.0,223.6 14.3,223.6 14.6,223.6 14.9,221.2 15.2,220.7 15.5,218.7 15.8,218.8 16.0,218.8 16.3,218.8 16.6,218.8 16.9,218.8 17.2,218.8 17.5,218.8 17.8,216.4 18.1,217.8 18.4,216.1 18.7,215.6 19.0,212.5 19.3,212.6 19.6,212.6 19.8,212.6 20.1,212.6 20.4,212.6 20.7,212.6 21.0,212.6 21.3,212.6 21.6,212.6 21.9,212.6 22.2,212.6 22.5,212.6 22.8,212.6 23.1,212.6 23.4,212.6 23.6,212.6 23.9,212.6 24.2,212.6 24.5,212.6 24.8,212.6 25.1,212.6 25.4,212.6 25.7,212.6 26.0,212.6 26.3,212.6 26.6,212.6 26.9,212.6 27.2,212.6 27.4,212.6 27.7,212.6 28.0,212.6 28.3,207.5 28.6,208.7 28.9,208.5 29.2,208.8 29.5,209.0 29.8,209.0 30.1,209.5 30.4,210.6 30.7,212.1 31.0,215.5 31.2,215.3 31.5,213.6 31.8,214.9 32.1,216.2 32.4,216.9 32.7,217.8 33.0,220.6 33.3,217.7 33.6,216.7 33.9,217.7 34.2,216.8 34.5,217.3 34.8,217.5 35.0,216.6 35.3,214.5 35.6,214.6 35.9,214.6 36.2,214.6 36.5,214.6 36.8,214.6 37.1,214.6 37.4,214.6 37.7,214.6 38.0,214.6 38.3,214.6 38.6,214.6 38.8,214.6 39.1,214.6 39.4,214.6 39.7,214.9 40.0,213.5 40.3,213.4 40.6,210.9 40.9,211.0 41.2,211.0 41.5,211.0 41.8,211.0 42.1,211.0 42.4,211.0 42.6,211.0 42.9,211.0 43.2,211.0 43.5,211.0 43.8,211.0 44.1,211.0 44.4,211.0 44.7,211.0 45.0,211.0 45.3,211.0 45.6,211.0 45.9,211.0 46.2,211.0 46.4,211.0 46.7,211.0 47.0,211.0 47.3,211.0 47.6,211.0 47.9,209.1 48.2,210.5 48.5,211.5 48.8,211.1 49.1,209.4 49.4,209.8 49.7,209.7 50.0,207.8 50.2,207.6 50.5,207.8 50.8,207.1 51.1,206.4 51.4,205.2 51.7,205.3 52.0,205.3 52.3,205.3 52.6,205.3 52.9,205.3 53.2,205.3 53.5,205.3 53.8,205.3 54.0,205.3 54.3,205.3 54.6,205.3 54.9,205.3 55.2,205.3 55.5,205.3 55.8,205.3 56.1,205.3 56.4,205.3 56.7,205.3 57.0,205.3 57.3,205.3 57.6,205.3 57.8,205.3 58.1,205.3 58.4,205.3 58.7,205.3 59.0,204.0 59.3,205.6 59.6,206.6 59.9,207.0 60.2,206.2 60.5,204.8 60.8,204.1 61.1,208.5 61.4,208.9 61.6,210.0 61.9,210.5 62.2,208.3 62.5,206.9 62.8,205.8 63.1,206.0 63.4,206.0 63.7,206.0 64.0,206.0 64.3,206.0 64.6,206.0 64.9,206.0 65.2,206.0 65.4,206.0 65.7,206.0 66.0,206.0 66.3,206.0 66.6,206.0 66.9,206.0 67.2,206.0 67.5,206.0 67.8,206.0 68.1,206.0 68.4,208.0 68.7,205.5 69.0,206.5 69.2,206.9 69.5,203.2 69.8,201.7 70.1,201.9 70.4,201.9 70.7,201.9 71.0,201.9 71.3,201.9 71.6,201.9 71.9,201.9 72.2,201.4 72.5,207.7 72.8,209.5 73.0,210.4 73.3,210.5 73.6,209.0 73.9,206.1 74.2,203.2 74.5,203.4 74.8,203.4 75.1,203.4 75.4,203.4 75.7,203.4 76.0,203.4 76.3,203.4 76.6,203.4 76.8,203.4 77.1,203.4 77.4,203.4 77.7,203.4 78.0,203.4 78.3,203.4 78.6,201.6 78.9,202.3 79.2,201.5 79.5,199.1 79.8,197.5 80.1,197.7 80.4,197.7 80.6,197.7 80.9,197.7 81.2,197.7 81.5,197.7 81.8,197.7 82.1,201.9 82.4,203.1 82.7,201.5 83.0,201.6 83.3,201.8 83.6,203.9 83.9,203.5 84.2,206.6 84.4,206.2 84.7,203.9 85.0,205.2 85.3,203.4 85.6,204.2 85.9,204.3 86.2,204.3 86.5,203.7 86.8,201.0 87.1,201.2 87.4,201.2 87.7,201.2 87.9,201.2 88.2,201.2 88.5,201.2 88.8,201.2 89.1,201.2 89.4,201.2 89.7,201.2 90.0,201.2 90.3,200.2 90.6,200.4 90.9,197.0 91.2,196.7 91.5,197.2 91.7,196.0 92.0,197.6 92.3,199.2 92.6,197.9 92.9,198.4 93.2,196.3 93.5,196.3 93.8,196.4 94.1,196.0 94.4,195.8 94.7,195.3 95.0,195.5 95.3,195.5 95.5,195.9 95.8,196.5 96.1,198.8 96.4,196.9 96.7,197.5 97.0,199.9 97.3,199.5 97.6,200.3 97.9,203.0 98.2,202.6 98.5,203.9 98.8,202.5 99.1,203.9 99.3,201.5 99.6,200.7 99.9,200.4 100.2,201.1 100.5,199.3 100.8,198.2 101.1,198.9 101.4,197.6 101.7,199.0 102.0,200.5 102.3,200.2 102.6,200.0 102.9,198.9 103.1,198.7 103.4,196.3 103.7,196.5 104.0,196.5 104.3,196.5 104.6,196.5 104.9,196.5 105.2,196.5 105.5,196.5 105.8,196.5 106.1,196.5 106.4,196.5 106.7,196.5 106.9,196.5 107.2,196.5 107.5,195.9 107.8,198.8 108.1,198.9 108.4,198.9 108.7,198.5 109.0,201.1 109.3,204.3 109.6,201.8 109.9,201.6 110.2,200.3 110.5,197.8 110.7,198.0 111.0,198.0 111.3,198.0 111.6,198.0 111.9,198.0 112.2,198.0 112.5,198.0 112.8,198.0 113.1,198.0 113.4,198.0 113.7,198.0 114.0,198.0 114.3,198.0 114.5,198.0 114.8,198.0 115.1,198.0 115.4,198.0 115.7,198.0 116.0,198.0 116.3,198.0 116.6,198.0 116.9,198.0 117.2,198.0 117.5,198.0 117.8,198.0 118.1,198.0 118.3,198.0 118.6,198.0 118.9,198.0 119.2,198.6 119.5,198.0 119.8,197.7 120.1,196.8 120.4,198.9 120.7,196.5 121.0,196.4 121.3,194.3 121.6,193.7 121.9,193.9 122.1,193.9 122.4,193.9 122.7,193.5 123.0,193.1 123.3,191.3 123.6,193.8 123.9,194.3 124.2,195.0 124.5,197.2 124.8,199.5 125.1,201.2 125.4,198.9 125.7,196.9 125.9,198.7 126.2,199.2 126.5,198.2 126.8,197.7 127.1,200.4 127.4,201.0 127.7,203.6 128.0,201.3 128.3,196.9 128.6,197.2 128.9,200.9 129.2,199.6 129.5,197.0 129.7,194.2 130.0,194.4 130.3,194.4 130.6,194.4 130.9,194.4 131.2,194.4 131.5,194.4 131.8,194.4 132.1,194.4 132.4,194.4 132.7,194.4 133.0,194.4 133.3,194.4 133.5,194.4 133.8,194.4 134.1,194.4 134.4,195.1 134.7,196.1 135.0,194.6 135.3,193.3 135.6,192.8 135.9,194.2 136.2,191.3 136.5,192.5 136.8,194.8 137.1,196.4 137.3,197.2 137.6,197.2 137.9,198.5 138.2,199.1 138.5,196.9 138.8,195.4 139.1,193.6 139.4,193.8 139.7,193.8 140.0,193.8 140.3,193.8 140.6,193.8 140.9,193.8 141.1,193.8 141.4,193.8 141.7,189.2 142.0,191.0 142.3,193.9 142.6,195.0 142.9,190.2 143.2,189.4 143.5,188.6 143.8,192.5 144.1,195.5 144.4,195.4 144.7,196.2 144.9,195.1 145.2,197.1 145.5,195.0 145.8,191.6 146.1,194.5 146.4,193.9 146.7,194.2 147.0,191.0 147.3,189.8 147.6,187.3 147.9,187.5 148.2,187.5 148.5,187.5 148.7,187.5 149.0,187.5 149.3,187.5 149.6,187.5 149.9,187.5 150.2,187.5 150.5,187.5 150.8,187.5 151.1,187.5 151.4,187.5 151.7,187.5 152.0,187.5 152.3,184.2 152.5,185.7 152.8,187.5 153.1,186.7 153.4,187.0 153.7,187.2 154.0,185.3 154.3,185.9 154.6,188.5 154.9,188.8 155.2,188.6 155.5,191.4 155.8,194.2 156.1,196.6 156.3,194.9 156.6,191.7 156.9,188.6 157.2,188.8 157.5,188.8 157.8,188.8 158.1,188.8 158.4,188.8 158.7,188.8 159.0,188.8 159.3,188.8 159.6,188.8 159.9,188.8 160.1,190.9 160.4,196.3 160.7,196.0 161.0,194.4 161.3,192.0 161.6,187.9 161.9,188.1 162.2,188.1 162.5,188.1 162.8,188.1 163.1,188.1 163.4,188.1 163.7,188.1 163.9,188.1 164.2,188.1 164.5,188.1 164.8,186.5 165.1,184.0 165.4,186.2 165.7,183.8 166.0,181.6 166.3,183.8 166.6,184.5 166.9,186.5 167.2,188.1 167.5,188.2 167.7,184.9 168.0,186.1 168.3,190.0 168.6,197.6 168.9,199.0 169.2,201.5 169.5,200.4 169.8,199.4 170.1,203.2 170.4,202.5 170.7,202.6 171.0,203.0 171.3,203.7 171.5,201.0 171.8,199.0 172.1,198.5 172.4,198.7 172.7,198.7 173.0,198.7 173.3,198.7 173.6,198.7 173.9,198.7 174.2,198.7 174.5,198.7 174.8,198.7 175.1,198.7 175.3,198.7 175.6,198.7 175.9,197.9 176.2,193.8 176.5,193.3 176.8,189.7 177.1,189.9 177.4,189.9 177.7,189.9 178.0,189.9 178.3,189.9 178.6,189.9 178.9,189.9 179.1,189.9 179.4,189.9 179.7,189.9 180.0,189.9 180.3,189.9 180.6,189.9 180.9,189.9 181.2,189.9 181.5,189.9 181.8,189.9 182.1,187.0 182.4,186.2 182.7,181.7 182.9,181.9 183.2,181.9 183.5,181.9 183.8,181.9 184.1,181.9 184.4,181.9 184.7,181.9 185.0,181.9 185.3,181.9 185.6,181.9 185.9,181.9 186.2,181.9 186.5,181.9 186.7,181.9 187.0,181.9 187.3,181.9 187.6,181.9 187.9,181.9 188.2,181.9 188.5,181.9 188.8,181.9 189.1,181.9 189.4,181.9 189.7,181.9 190.0,181.9 190.3,181.9 190.5,181.9 190.8,181.9 191.1,181.9 191.4,181.9 191.7,181.9 192.0,181.9 192.3,180.9 192.6,180.7 192.9,181.1 193.2,180.8 193.5,181.6 193.8,178.0 194.1,178.2 194.3,178.2 194.6,178.2 194.9,178.2 195.2,178.2 195.5,178.2 195.8,178.2 196.1,178.2 196.4,178.2 196.7,178.2 197.0,178.2 197.3,178.2 197.6,180.8 197.9,179.9 198.1,178.9 198.4,179.1 198.7,176.0 199.0,176.3 199.3,175.9 199.6,174.7 199.9,175.4 200.2,173.9 200.5,174.3 200.8,174.6 201.1,174.0 201.4,172.6 201.7,170.6 201.9,170.8 202.2,170.8 202.5,170.8 202.8,170.8 203.1,170.8 203.4,170.8 203.7,170.8 204.0,170.8 204.3,171.8 204.6,171.9 204.9,171.4 205.2,171.2 205.5,169.5 205.7,169.7 206.0,169.7 206.3,169.7 206.6,169.7 206.9,169.7 207.2,169.7 207.5,169.7 207.8,169.7 208.1,168.1 208.4,171.0 208.7,172.9 209.0,177.0 209.3,177.2 209.5,180.7 209.8,178.4 210.1,179.4 210.4,181.6 210.7,180.7 211.0,182.6 211.3,182.9 211.6,180.7 211.9,182.3 212.2,182.6 212.5,183.5 212.8,184.1 213.1,178.2 213.3,178.4 213.6,178.4 213.9,178.4 214.2,178.4 214.5,178.4 214.8,178.4 215.1,178.4 215.4,178.4 215.7,178.4 216.0,178.4 216.3,178.4 216.6,178.4 216.9,178.4 217.1,178.4 217.4,178.4 217.7,178.4 218.0,178.4 218.3,178.4 218.6,178.4 218.9,178.4 219.2,178.4 219.5,178.4 219.8,178.4 220.1,178.4 220.4,178.4 220.7,178.4 220.9,178.4 221.2,178.4 221.5,178.4 221.8,178.4 222.1,178.4 222.4,180.5 222.7,181.3 223.0,178.2 223.3,174.0 223.6,176.5 223.9,176.4 224.2,178.1 224.5,177.3 224.7,179.8 225.0,179.0 225.3,179.9 225.6,182.0 225.9,183.0 226.2,185.9 226.5,184.3 226.8,185.5 227.1,182.4 227.4,181.0 227.7,178.3 228.0,178.5 228.3,178.5 228.5,178.5 228.8,178.5 229.1,178.5 229.4,178.5 229.7,178.5 230.0,178.5 230.3,178.5 230.6,178.5 230.9,178.5 231.2,178.5 231.5,178.5 231.8,178.5 232.1,178.5 232.3,178.5 232.6,178.5 232.9,178.5 233.2,178.5 233.5,178.5 233.8,178.5 234.1,178.5 234.4,178.5 234.7,178.5 235.0,178.5 235.3,178.5 235.6,178.5 235.8,178.5 236.1,178.5 236.4,178.5 236.7,178.5 237.0,178.5 237.3,178.5 237.6,178.5 237.9,178.5 238.2,178.5 238.5,178.5 238.8,178.5 239.1,178.5 239.4,178.5 239.6,178.5 239.9,178.5 240.2,178.5 240.5,178.5 240.8,178.5 241.1,178.5 241.4,178.5 241.7,178.5 242.0,178.5 242.3,178.5 242.6,178.5 242.9,178.5 243.2,178.5 243.4,178.5 243.7,179.8 244.0,180.5 244.3,181.7 244.6,180.5 244.9,182.4 245.2,185.8 245.5,184.6 245.8,185.3 246.1,185.3 246.4,187.9 246.7,188.7 247.0,189.3 247.2,188.6 247.5,187.2 247.8,188.6 248.1,189.0 248.4,185.2 248.7,184.9 249.0,180.7 249.3,180.9 249.6,180.9 249.9,180.9 250.2,180.9 250.5,180.9 250.8,180.9 251.0,180.9 251.3,180.9 251.6,180.9 251.9,180.1 252.2,180.9 252.5,178.3 252.8,178.7 253.1,177.3 253.4,179.3 253.7,182.1 254.0,179.2 254.3,177.7 254.6,177.8 254.8,176.1 255.1,176.3 255.4,176.3 255.7,176.3 256.0,176.3 256.3,176.3 256.6,176.3 256.9,176.3 257.2,176.3 257.5,174.8 257.8,171.8 258.1,171.0 258.4,171.1 258.6,171.0 258.9,170.2 259.2,172.9 259.5,172.1 259.8,169.0 260.1,167.3 260.4,167.5 260.7,167.5 261.0,167.5 261.3,167.5 261.6,167.5 261.9,167.5 262.2,167.5 262.4,167.5 262.7,167.5 263.0,167.5 263.3,167.5 263.6,167.5 263.9,167.5 264.2,167.5 264.5,167.5 264.8,167.5 265.1,167.5 265.4,167.5 265.7,167.5 266.0,167.5 266.2,160.1 266.5,160.0 266.8,161.5 267.1,162.6 267.4,159.2 267.7,160.1 268.0,163.4 268.3,163.0 268.6,158.0 268.9,154.6 269.2,154.8 269.5,154.8 269.8,154.8 270.0,154.8 270.3,154.8 270.6,154.8 270.9,154.8 271.2,154.8 271.5,154.8 271.8,154.8 272.1,152.6 272.4,151.5 272.7,149.1 273.0,152.5 273.3,154.3 273.6,150.9 273.8,149.0 274.1,145.5 274.4,145.8 274.7,145.8 275.0,145.8 275.3,145.8 275.6,145.8 275.9,145.8 276.2,145.8 276.5,145.8 276.8,145.8 277.1,145.8 277.4,145.8 277.6,145.8 277.9,145.8 278.2,145.8 278.5,145.8 278.8,145.8 279.1,145.8 279.4,145.8 279.7,145.8 280.0,145.8 280.3,145.8 280.6,145.8 280.9,145.8 281.2,145.8 281.4,145.8 281.7,145.8 282.0,145.8 282.3,152.7 282.6,153.7 282.9,153.4 283.2,149.4 283.5,148.6 283.8,147.4 284.1,147.1 284.4,148.4 284.7,151.1 285.0,150.9 285.2,151.1 285.5,153.9 285.8,155.9 286.1,158.3 286.4,159.9 286.7,156.0 287.0,154.8 287.3,153.8 287.6,156.2 287.9,157.8 288.2,154.3 288.5,156.3 288.8,157.8 289.0,155.4 289.3,152.0 289.6,148.2 289.9,148.4 290.2,148.4 290.5,148.4 290.8,148.4 291.1,148.4 291.4,148.4 291.7,148.4 292.0,148.4 292.3,148.4 292.6,148.4 292.8,148.4 293.1,148.4 293.4,148.4 293.7,148.4 294.0,148.4 294.3,148.4 294.6,148.4 294.9,148.4 295.2,148.4 295.5,148.4 295.8,148.4 296.1,148.4 296.4,148.4 296.6,148.4 296.9,148.4 297.2,148.4 297.5,148.4 297.8,148.4 298.1,148.4 298.4,148.4 298.7,148.4 299.0,148.4 299.3,148.4 299.6,147.2 299.9,147.5 300.2,150.5 300.4,151.0 300.7,151.0 301.0,149.8 301.3,148.6 301.6,149.6 301.9,149.2 302.2,142.6 302.5,142.8 302.8,142.8 303.1,142.8 303.4,142.8 303.7,140.0 304.0,135.7 304.2,137.0 304.5,136.5 304.8,137.2 305.1,140.4 305.4,139.9 305.7,138.6 306.0,142.3" fill="none" stroke="#3fb950" stroke-width="2"/>
  <text x="306" y="226" fill="#3fb950" font-size="12" text-anchor="end">×1.53 on regime_switch</text>
</svg>
