<svg xmlns="http://www.w3.org/2000/svg" viewBox="0 0 320 240" font-family="system-ui,sans-serif">
  <rect width="320" height="240" fill="#0f1117"/>
  <text x="14" y="22" fill="#e8e8e8" font-size="13" font-weight="600">52-Week High Proximity (Anchoring Bias)</text>
  <polyline points="14.0,185.8 14.3,187.3 14.6,187.7 14.9,185.7 15.2,185.3 15.5,183.8 15.8,182.8 16.0,183.7 16.3,182.8 16.6,183.2 16.9,183.6 17.2,183.3 17.5,185.6 17.8,183.7 18.1,184.6 18.4,183.0 18.7,182.7 19.0,180.2 19.3,181.1 19.6,181.5 19.8,180.9 20.1,184.3 20.4,182.9 20.7,180.4 21.0,178.4 21.3,177.1 21.6,177.3 21.9,175.0 22.2,173.1 22.5,172.4 22.8,172.3 23.1,172.8 23.4,174.8 23.6,172.6 23.9,176.2 24.2,176.7 24.5,176.3 24.8,174.8 25.1,171.7 25.4,169.9 25.7,170.3 26.0,168.9 26.3,171.0 26.6,168.4 26.9,168.6 27.2,169.7 27.4,170.7 27.7,170.7 28.0,171.3 28.3,167.2 28.6,168.3 28.9,168.2 29.2,168.0 29.5,167.9 29.8,167.7 30.1,168.4 30.4,169.4 30.7,170.8 31.0,173.2 31.2,172.8 31.5,171.0 31.8,171.8 32.1,172.7 32.4,173.1 32.7,173.8 33.0,176.1 33.3,173.7 33.6,172.9 33.9,174.0 34.2,173.4 34.5,174.0 34.8,174.3 35.0,173.6 35.3,171.9 35.6,169.1 35.9,166.0 36.2,166.4 36.5,167.1 36.8,166.9 37.1,166.5 37.4,167.7 37.7,168.7 38.0,167.2 38.3,164.2 38.6,164.5 38.8,165.5 39.1,165.9 39.4,167.6 39.7,168.0 40.0,167.1 40.3,167.2 40.6,164.9 40.9,164.5 41.2,163.5 41.5,163.7 41.8,161.2 42.1,163.3 42.4,163.8 42.6,165.8 42.9,164.2 43.2,162.5 43.5,163.4 43.8,160.2 44.1,160.7 44.4,163.1 44.7,163.5 45.0,162.8 45.3,163.1 45.6,158.8 45.9,157.1 46.2,153.6 46.4,150.8 46.7,154.0 47.0,154.6 47.3,159.7 47.6,160.8 47.9,158.6 48.2,160.1 48.5,161.1 48.8,160.4 49.1,158.8 49.4,159.4 49.7,159.8 50.0,158.2 50.2,157.6 50.5,158.0 50.8,157.3 51.1,157.0 51.4,156.5 51.7,152.5 52.0,153.0 52.3,153.9 52.6,151.0 52.9,152.3 53.2,148.8 53.5,149.0 53.8,148.8 54.0,147.2 54.3,144.6 54.6,142.4 54.9,142.7 55.2,143.4 55.5,142.5 55.8,142.1 56.1,143.3 56.4,142.4 56.7,140.2 57.0,139.7 57.3,136.2 57.6,135.2 57.8,135.4 58.1,135.1 58.4,136.2 58.7,138.3 59.0,137.1 59.3,138.8 59.6,139.5 59.9,139.5 60.2,138.6 60.5,137.5 60.8,137.3 61.1,141.2 61.4,141.6 61.6,143.1 61.9,143.2 62.2,141.0 62.5,139.2 62.8,138.6 63.1,137.4 63.4,140.4 63.7,139.9 64.0,138.4 64.3,139.8 64.6,138.8 64.9,139.5 65.2,137.3 65.4,134.7 65.7,135.8 66.0,132.4 66.3,132.7 66.6,128.0 66.9,129.0 67.2,128.7 67.5,128.1 67.8,129.7 68.1,133.4 68.4,135.0 68.7,132.5 69.0,133.1 69.2,133.7 69.5,130.2 69.8,129.0 70.1,127.3 70.4,125.2 70.7,127.1 71.0,126.7 71.3,126.2 71.6,126.5 71.9,128.8 72.2,127.7 72.5,133.8 72.8,135.2 73.0,136.4 73.3,137.0 73.6,135.7 73.9,133.1 74.2,130.4 74.5,129.3 74.8,128.7 75.1,132.4 75.4,130.7 75.7,126.7 76.0,126.1 76.3,125.9 76.6,125.0 76.8,124.0 77.1,124.0 77.4,124.8 77.7,124.4 78.0,126.7 78.3,129.8 78.6,127.7 78.9,128.6 79.2,127.6 79.5,125.3 79.8,123.6 80.1,124.6 80.4,124.3 80.6,126.3 80.9,126.6 81.2,125.2 81.5,125.3 81.8,129.8 82.1,133.4 82.4,134.6 82.7,132.5 83.0,132.3 83.3,132.1 83.6,134.1 83.9,133.9 84.2,137.4 84.4,136.8 84.7,134.9 85.0,136.2 85.3,134.4 85.6,135.5 85.9,135.3 86.2,135.5 86.5,135.3 86.8,132.9 87.1,131.6 87.4,132.7 87.7,136.9 87.9,135.5 88.2,134.3 88.5,134.0 88.8,134.9 89.1,132.4 89.4,135.2 89.7,136.3 90.0,138.6 90.3,137.9 90.6,138.5 90.9,135.2 91.2,135.1 91.5,135.5 91.7,134.6 92.0,135.7 92.3,137.3 92.6,136.4 92.9,137.1 93.2,135.5 93.5,135.0 93.8,134.8 94.1,134.7 94.4,134.8 94.7,134.1 95.0,134.7 95.3,137.7 95.5,137.5 95.8,138.2 96.1,140.2 96.4,138.9 96.7,139.3 97.0,141.9 97.3,141.9 97.6,142.8 97.9,145.2 98.2,144.5 98.5,145.9 98.8,144.5 99.1,145.7 99.3,144.0 99.6,143.1 99.9,142.8 100.2,143.7 100.5,142.2 100.8,141.2 101.1,141.6 101.4,140.6 101.7,142.0 102.0,143.8 102.3,143.8 102.6,143.5 102.9,142.6 103.1,142.3 103.4,140.3 103.7,142.1 104.0,141.1 104.3,140.6 104.6,138.4 104.9,138.1 105.2,137.5 105.5,134.7 105.8,133.5 106.1,132.6 106.4,133.2 106.7,133.0 106.9,135.5 107.2,136.8 107.5,135.7 107.8,138.4 108.1,138.2 108.4,138.1 108.7,137.4 109.0,139.9 109.3,142.9 109.6,141.1 109.9,140.7 110.2,140.0 110.5,137.4 110.7,137.0 111.0,140.0 111.3,140.3 111.6,139.0 111.9,139.5 112.2,139.9 112.5,140.7 112.8,138.3 113.1,136.3 113.4,139.0 113.7,136.0 114.0,137.1 114.3,133.9 114.5,135.9 114.8,134.2 115.1,135.1 115.4,135.3 115.7,133.9 116.0,135.0 116.3,134.5 116.6,134.0 116.9,132.2 117.2,130.1 117.5,127.3 117.8,127.0 118.1,126.5 118.3,127.5 118.6,128.8 118.9,130.9 119.2,131.3 119.5,131.1 119.8,131.2 120.1,130.3 120.4,132.5 120.7,129.8 121.0,129.5 121.3,127.9 121.6,127.4 121.9,128.9 122.1,129.5 122.4,134.7 122.7,134.3 123.0,134.4 123.3,132.5 123.6,135.3 123.9,135.4 124.2,135.8 124.5,137.7 124.8,139.9 125.1,141.6 125.4,139.9 125.7,138.3 125.9,140.4 126.2,140.5 126.5,139.7 126.8,139.0 127.1,141.3 127.4,142.1 127.7,144.1 128.0,142.3 128.3,138.2 128.6,138.2 128.9,141.4 129.2,140.0 129.5,137.4 129.7,135.1 130.0,134.8 130.3,134.0 130.6,133.8 130.9,132.1 131.2,129.9 131.5,131.4 131.8,132.6 132.1,133.2 132.4,133.6 132.7,133.1 133.0,130.5 133.3,133.2 133.5,131.1 133.8,131.4 134.1,137.5 134.4,138.3 134.7,138.7 135.0,137.4 135.3,136.0 135.6,135.9 135.9,137.6 136.2,135.4 136.5,136.7 136.8,139.2 137.1,140.4 137.3,141.4 137.6,141.5 137.9,142.4 138.2,143.0 138.5,141.3 138.8,139.5 139.1,138.3 139.4,138.8 139.7,140.1 140.0,140.5 140.3,140.7 140.6,138.8 140.9,139.2 141.1,141.7 141.4,143.3 141.7,139.5 142.0,141.3 142.3,143.8 142.6,144.3 142.9,140.5 143.2,140.2 143.5,139.5 143.8,142.7 144.1,145.6 144.4,145.5 144.7,146.3 144.9,145.4 145.2,147.6 145.5,145.3 145.8,142.4 146.1,145.5 146.4,144.8 146.7,145.3 147.0,142.2 147.3,141.6 147.6,139.5 147.9,139.5 148.2,138.7 148.5,134.0 148.7,129.2 149.0,132.9 149.3,131.9 149.6,131.3 149.9,133.5 150.2,135.1 150.5,134.5 150.8,132.3 151.1,131.0 151.4,131.8 151.7,134.1 152.0,138.5 152.3,135.0 152.5,136.1 152.8,137.8 153.1,137.0 153.4,137.0 153.7,137.0 154.0,135.4 154.3,136.3 154.6,138.5 154.9,138.7 155.2,138.4 155.5,140.6 155.8,142.8 156.1,144.9 156.3,143.1 156.6,140.0 156.9,137.2 157.2,139.0 157.5,140.4 157.8,142.9 158.1,138.9 158.4,139.9 158.7,139.8 159.0,140.7 159.3,140.2 159.6,142.3 159.9,143.5 160.1,145.2 160.4,149.9 160.7,149.3 161.0,147.7 161.3,145.6 161.6,142.3 161.9,140.2 162.2,140.2 162.5,138.9 162.8,139.9 163.1,138.1 163.4,138.6 163.7,143.4 163.9,143.3 164.2,143.1 164.5,145.4 164.8,144.3 165.1,141.7 165.4,144.0 165.7,142.3 166.0,140.4 166.3,142.2 166.6,143.1 166.9,145.2 167.2,146.3 167.5,146.2 167.7,143.7 168.0,144.9 168.3,148.0 168.6,154.1 168.9,155.3 169.2,157.7 169.5,157.2 169.8,156.7 170.1,159.6 170.4,158.8 170.7,159.1 171.0,159.4 171.3,160.3 171.5,158.4 171.8,157.2 172.1,156.7 172.4,154.4 172.7,154.2 173.0,153.8 173.3,152.7 173.6,153.1 173.9,155.3 174.2,151.8 174.5,149.8 174.8,152.2 175.1,154.0 175.3,156.0 175.6,158.8 175.9,158.0 176.2,155.0 176.5,154.2 176.8,151.0 177.1,151.7 177.4,151.1 177.7,152.8 178.0,152.6 178.3,150.4 178.6,148.9 178.9,146.7 179.1,147.4 179.4,145.4 179.7,142.3 180.0,141.0 180.3,143.8 180.6,143.1 180.9,142.5 181.2,143.7 181.5,145.7 181.8,147.3 182.1,144.8 182.4,144.4 182.7,140.8 182.9,144.5 183.2,143.5 183.5,140.0 183.8,136.0 184.1,137.0 184.4,133.4 184.7,130.9 185.0,128.1 185.3,127.5 185.6,125.0 185.9,122.8 186.2,124.0 186.5,130.1 186.7,127.4 187.0,124.8 187.3,122.9 187.6,123.7 187.9,124.5 188.2,127.9 188.5,124.0 188.8,124.1 189.1,122.0 189.4,126.2 189.7,129.8 190.0,128.4 190.3,126.5 190.5,123.6 190.8,123.8 191.1,124.6 191.4,124.3 191.7,125.9 192.0,127.3 192.3,126.3 192.6,126.6 192.9,127.4 193.2,126.7 193.5,127.2 193.8,123.5 194.1,124.0 194.3,121.6 194.6,120.6 194.9,119.2 195.2,118.8 195.5,119.1 195.8,119.3 196.1,120.3 196.4,119.8 196.7,118.5 197.0,122.4 197.3,124.4 197.6,126.2 197.9,125.2 198.1,124.3 198.4,125.0 198.7,122.7 199.0,123.3 199.3,122.6 199.6,121.4 199.9,121.7 200.2,120.2 200.5,120.9 200.8,121.1 201.1,121.0 201.4,119.9 201.7,117.9 201.9,119.2 202.2,121.5 202.5,120.6 202.8,123.9 203.1,123.9 203.4,123.0 203.7,125.8 204.0,127.1 204.3,127.6 204.6,127.7 204.9,127.7 205.2,127.1 205.5,126.0 205.7,128.4 206.0,126.5 206.3,126.9 206.6,127.6 206.9,125.8 207.2,126.7 207.5,128.0 207.8,130.9 208.1,128.8 208.4,131.5 208.7,133.5 209.0,136.6 209.3,137.0 209.5,139.7 209.8,137.6 210.1,138.4 210.4,140.0 210.7,139.1 211.0,140.5 211.3,140.4 211.6,138.8 211.9,139.7 212.2,140.0 212.5,140.9 212.8,141.1 213.1,136.1 213.3,139.2 213.6,137.5 213.9,137.2 214.2,138.1 214.5,136.3 214.8,134.1 215.1,135.4 215.4,135.3 215.7,136.1 216.0,135.2 216.3,134.7 216.6,134.6 216.9,133.7 217.1,132.8 217.4,130.4 217.7,131.6 218.0,131.6 218.3,127.7 218.6,128.7 218.9,126.7 219.2,128.2 219.5,127.1 219.8,127.3 220.1,126.6 220.4,127.1 220.7,125.1 220.9,125.1 221.2,125.4 221.5,124.7 221.8,125.8 222.1,129.4 222.4,131.7 222.7,132.7 223.0,129.9 223.3,126.3 223.6,128.4 223.9,128.1 224.2,129.1 224.5,128.6 224.7,130.5 225.0,129.9 225.3,131.0 225.6,132.8 225.9,133.6 226.2,136.6 226.5,135.3 226.8,136.5 227.1,134.0 227.4,132.5 227.7,130.5 228.0,131.0 228.3,128.9 228.5,126.8 228.8,127.3 229.1,127.2 229.4,124.9 229.7,124.7 230.0,125.8 230.3,124.1 230.6,122.2 230.9,123.7 231.2,123.0 231.5,123.0 231.8,121.3 232.1,122.5 232.3,120.5 232.6,119.2 232.9,119.9 233.2,120.8 233.5,122.7 233.8,120.5 234.1,122.1 234.4,122.5 234.7,119.6 235.0,118.4 235.3,118.1 235.6,117.8 235.8,118.2 236.1,120.5 236.4,119.7 236.7,121.6 237.0,118.3 237.3,120.9 237.6,121.4 237.9,121.4 238.2,122.4 238.5,122.4 238.8,121.4 239.1,119.2 239.4,119.0 239.6,119.2 239.9,118.7 240.2,118.7 240.5,119.9 240.8,120.0 241.1,118.1 241.4,118.1 241.7,118.2 242.0,118.5 242.3,117.7 242.6,117.2 242.9,116.6 243.2,117.2 243.4,121.0 243.7,122.0 244.0,122.1 244.3,123.6 244.6,122.5 244.9,123.9 245.2,127.4 245.5,126.1 245.8,126.4 246.1,126.3 246.4,129.1 246.7,129.5 247.0,129.7 247.2,129.5 247.5,128.0 247.8,129.3 248.1,129.6 248.4,125.6 248.7,125.7 249.0,122.2 249.3,126.1 249.6,126.4 249.9,123.3 250.2,121.5 250.5,117.7 250.8,118.4 251.0,117.9 251.3,123.3 251.6,126.4 251.9,125.0 252.2,126.3 252.5,124.2 252.8,124.7 253.1,123.3 253.4,125.1 253.7,127.4 254.0,124.7 254.3,123.2 254.6,123.0 254.8,120.9 255.1,118.6 255.4,115.7 255.7,116.3 256.0,117.9 256.3,117.7 256.6,116.7 256.9,119.7 257.2,124.7 257.5,123.6 257.8,120.6 258.1,120.1 258.4,120.6 258.6,120.0 258.9,119.3 259.2,121.6 259.5,120.8 259.8,117.8 260.1,116.6 260.4,116.8 260.7,114.8 261.0,113.1 261.3,115.5 261.6,112.1 261.9,109.9 262.2,108.9 262.4,107.5 262.7,106.7 263.0,108.4 263.3,106.6 263.6,106.3 263.9,103.3 264.2,104.4 264.5,106.2 264.8,108.2 265.1,105.4 265.4,105.3 265.7,106.5 266.0,109.5 266.2,102.9 266.5,102.4 266.8,103.9 267.1,104.9 267.4,101.7 267.7,102.3 268.0,104.9 268.3,104.9 268.6,100.5 268.9,97.1 269.2,93.3 269.5,95.0 269.8,98.6 270.0,99.5 270.3,100.4 270.6,100.2 270.9,97.6 271.2,99.0 271.5,100.8 271.8,103.5 272.1,101.5 272.4,100.2 272.7,97.7 273.0,100.9 273.3,102.0 273.6,98.5 273.8,97.3 274.1,93.9 274.4,91.2 274.7,89.0 275.0,90.5 275.3,90.7 275.6,89.6 275.9,82.9 276.2,80.6 276.5,80.8 276.8,80.1 277.1,78.6 277.4,79.0 277.6,76.7 277.9,73.3 278.2,65.8 278.5,60.9 278.8,59.7 279.1,61.5 279.4,65.0 279.7,61.7 280.0,57.7 280.3,52.7 280.6,51.5 280.9,51.2 281.2,51.2 281.4,48.3 281.7,54.7 282.0,60.0 282.3,67.4 282.6,68.6 282.9,68.7 283.2,64.9 283.5,64.6 283.8,62.8 284.1,62.9 284.4,64.3 284.7,67.4 285.0,66.5 285.2,66.4 285.5,69.4 285.8,70.9 286.1,73.9 286.4,76.2 286.7,72.4 287.0,71.1 287.3,69.4 287.6,72.0 287.9,73.6 288.2,69.7 288.5,71.6 288.8,73.3 289.0,71.1 289.3,67.4 289.6,63.5 289.9,62.6 290.2,64.3 290.5,63.1 290.8,61.3 291.1,61.8 291.4,62.3 291.7,59.8 292.0,53.3 292.3,58.5 292.6,58.2 292.8,62.9 293.1,62.5 293.4,63.3 293.7,56.7 294.0,54.8 294.3,58.0 294.6,52.8 294.9,57.6 295.2,55.2 295.5,49.1 295.8,47.6 296.1,45.0 296.4,43.0 296.6,43.2 296.9,41.9 297.2,46.6 297.5,44.5 297.8,46.5 298.1,43.4 298.4,44.1 298.7,44.2 299.0,44.6 299.3,47.0 299.6,44.9 299.9,45.5 300.2,48.6 300.4,49.8 300.7,50.1 301.0,48.6 301.3,47.6 301.6,48.9 301.9,47.7 302.2,40.0 302.5,40.7 302.8,49.8 303.1,53.2 303.4,55.1 303.7,51.1 304.0,46.9 304.2,48.3 304.5,47.3 304.8,47.5 305.1,51.3 305.4,50.9 305.7,49.5 306.0,52.7" fill="none" stroke="#6e7681" stroke-width="1.5" stroke-dasharray="3 3"/>
  <polyline points="14.0,185.8 14.3,185.8 14.6,185.8 14.9,185.8 15.2,185.8 15.5,185.8 15.8,185.8 16.0,185.8 16.3,185.8 16.6,185.8 16.9,185.8 17.2,185.8 17.5,185.8 17.8,185.8 18.1,185.8 18.4,185.8 18.7,185.8 19.0,185.8 19.3,185.8 19.6,185.8 19.8,185.8 20.1,185.8 20.4,185.8 20.7,185.8 21.0,185.8 21.3,185.8 21.6,185.8 21.9,185.8 22.2,185.8 22.5,185.8 22.8,185.8 23.1,185.8 23.4,185.8 23.6,185.8 23.9,185.8 24.2,185.8 24.5,185.8 24.8,185.8 25.1,185.8 25.4,185.8 25.7,185.8 26.0,185.8 26.3,185.8 26.6,185.8 26.9,185.8 27.2,185.8 27.4,185.8 27.7,185.8 28.0,185.8 28.3,185.8 28.6,185.8 28.9,185.8 29.2,185.8 29.5,185.8 29.8,185.8 30.1,185.8 30.4,185.8 30.7,185.8 31.0,185.8 31.2,185.8 31.5,185.8 31.8,185.8 32.1,185.8 32.4,185.8 32.7,185.8 33.0,185.8 33.3,185.8 33.6,185.8 33.9,185.8 34.2,185.8 34.5,185.8 34.8,185.8 35.0,185.8 35.3,185.8 35.6,185.8 35.9,185.8 36.2,185.8 36.5,185.8 36.8,185.8 37.1,185.8 37.4,185.8 37.7,185.8 38.0,185.8 38.3,185.8 38.6,185.8 38.8,185.8 39.1,185.8 39.4,185.8 39.7,185.8 40.0,185.8 40.3,185.8 40.6,185.8 40.9,185.8 41.2,185.8 41.5,185.8 41.8,185.8 42.1,185.8 42.4,185.8 42.6,185.8 42.9,185.8 43.2,185.8 43.5,185.8 43.8,185.8 44.1,185.8 44.4,185.8 44.7,185.8 45.0,185.8 45.3,185.8 45.6,185.8 45.9,185.8 46.2,185.8 46.4,185.8 46.7,185.8 47.0,185.8 47.3,185.8 47.6,185.8 47.9,185.8 48.2,185.8 48.5,185.8 48.8,185.8 49.1,185.8 49.4,185.8 49.7,185.8 50.0,185.8 50.2,185.8 50.5,185.8 50.8,185.8 51.1,185.8 51.4,185.8 51.7,185.8 52.0,185.8 52.3,185.8 52.6,185.8 52.9,185.8 53.2,185.8 53.5,185.8 53.8,185.8 54.0,185.8 54.3,185.8 54.6,185.8 54.9,185.8 55.2,185.8 55.5,185.8 55.8,185.8 56.1,185.8 56.4,185.8 56.7,185.8 57.0,185.8 57.3,185.8 57.6,185.8 57.8,185.8 58.1,185.8 58.4,185.8 58.7,185.8 59.0,185.8 59.3,185.8 59.6,185.8 59.9,185.8 60.2,185.8 60.5,185.8 60.8,185.8 61.1,185.8 61.4,185.8 61.6,185.8 61.9,185.8 62.2,185.8 62.5,185.8 62.8,185.8 63.1,185.8 63.4,185.8 63.7,185.8 64.0,185.8 64.3,185.8 64.6,185.8 64.9,185.8 65.2,185.8 65.4,185.8 65.7,185.8 66.0,185.8 66.3,185.8 66.6,185.8 66.9,185.8 67.2,185.8 67.5,185.8 67.8,185.8 68.1,185.8 68.4,185.8 68.7,185.8 69.0,185.8 69.2,185.8 69.5,185.8 69.8,185.8 70.1,185.8 70.4,185.8 70.7,185.8 71.0,185.8 71.3,185.8 71.6,185.8 71.9,185.8 72.2,185.8 72.5,185.8 72.8,185.8 73.0,185.8 73.3,185.8 73.6,185.8 73.9,185.8 74.2,185.8 74.5,185.8 74.8,185.8 75.1,185.8 75.4,185.8 75.7,185.8 76.0,185.8 76.3,185.8 76.6,185.8 76.8,185.8 77.1,185.8 77.4,185.8 77.7,185.8 78.0,185.8 78.3,185.8 78.6,185.8 78.9,185.8 79.2,185.8 79.5,185.8 79.8,185.8 80.1,185.8 80.4,185.8 80.6,185.8 80.9,185.8 81.2,185.8 81.5,185.8 81.8,185.8 82.1,185.8 82.4,185.8 82.7,185.8 83.0,185.8 83.3,185.8 83.6,185.8 83.9,185.8 84.2,185.8 84.4,185.8 84.7,185.8 85.0,185.8 85.3,185.8 85.6,185.8 85.9,185.8 86.2,185.8 86.5,185.8 86.8,185.8 87.1,185.8 87.4,185.8 87.7,185.8 87.9,185.8 88.2,185.8 88.5,185.8 88.8,185.8 89.1,185.8 89.4,188.0 89.7,188.6 90.0,190.5 90.3,189.7 90.6,189.8 90.9,187.5 91.2,187.4 91.5,187.6 91.7,186.9 92.0,187.9 92.3,189.0 92.6,188.1 92.9,188.4 93.2,187.1 93.5,187.1 93.8,187.1 94.1,186.8 94.4,186.7 94.7,186.4 95.0,187.0 95.3,189.1 95.5,189.3 95.8,189.7 96.1,191.2 96.4,189.9 96.7,190.3 97.0,191.9 97.3,191.6 97.6,192.1 97.9,192.2 98.2,192.2 98.5,192.2 98.8,192.2 99.1,192.2 99.3,192.2 99.6,192.2 99.9,192.2 100.2,192.2 100.5,192.2 100.8,192.2 101.1,192.2 101.4,192.2 101.7,192.2 102.0,192.2 102.3,192.2 102.6,192.2 102.9,192.2 103.1,192.2 103.4,192.2 103.7,192.2 104.0,192.2 104.3,192.2 104.6,192.2 104.9,192.2 105.2,192.2 105.5,192.2 105.8,192.2 106.1,192.2 106.4,192.6 106.7,192.7 106.9,194.2 107.2,195.0 107.5,194.5 107.8,196.3 108.1,196.4 108.4,196.4 108.7,196.2 109.0,197.8 109.3,199.8 109.6,199.9 109.9,199.9 110.2,199.9 110.5,199.9 110.7,199.9 111.0,199.9 111.3,199.9 111.6,199.9 111.9,199.9 112.2,199.9 112.5,199.9 112.8,199.9 113.1,199.9 113.4,199.9 113.7,199.9 114.0,199.9 114.3,199.9 114.5,199.9 114.8,199.9 115.1,199.9 115.4,199.9 115.7,199.9 116.0,199.9 116.3,199.9 116.6,199.9 116.9,199.9 117.2,198.9 117.5,197.0 117.8,196.8 118.1,196.8 118.3,197.4 118.6,198.4 118.9,200.0 119.2,200.2 119.5,199.9 119.8,199.7 120.1,199.1 120.4,200.4 120.7,199.0 121.0,198.9 121.3,197.6 121.6,197.3 121.9,197.9 122.1,198.1 122.4,201.5 122.7,201.2 123.0,201.0 123.3,199.9 123.6,201.4 123.9,201.7 124.2,202.0 124.5,203.3 124.8,204.7 125.1,205.7 125.4,204.3 125.7,203.2 125.9,204.2 126.2,204.5 126.5,203.9 126.8,203.6 127.1,205.2 127.4,205.6 127.7,205.7 128.0,205.7 128.3,205.7 128.6,205.7 128.9,205.7 129.2,205.7 129.5,205.7 129.7,205.7 130.0,205.7 130.3,205.7 130.6,205.7 130.9,205.7 131.2,204.3 131.5,205.3 131.8,205.8 132.1,206.0 132.4,206.4 132.7,206.0 133.0,204.6 133.3,206.0 133.5,204.7 133.8,205.0 134.1,208.6 134.4,208.9 134.7,209.5 135.0,208.6 135.3,207.9 135.6,207.6 135.9,208.4 136.2,206.8 136.5,207.5 136.8,208.7 137.1,209.6 137.3,210.0 137.6,210.0 137.9,210.7 138.2,210.8 138.5,210.8 138.8,210.8 139.1,210.8 139.4,210.8 139.7,210.8 140.0,210.8 140.3,210.8 140.6,210.8 140.9,210.8 141.1,210.8 141.4,210.8 141.7,210.8 142.0,210.8 142.3,210.8 142.6,210.8 142.9,210.8 143.2,210.8 143.5,210.8 143.8,210.8 144.1,210.8 144.4,210.8 144.7,210.8 144.9,210.8 145.2,210.8 145.5,210.8 145.8,210.8 146.1,210.8 146.4,210.8 146.7,210.8 147.0,210.8 147.3,210.8 147.6,210.8 147.9,210.8 148.2,210.8 148.5,210.8 148.7,210.8 149.0,213.0 149.3,212.8 149.6,212.6 149.9,213.7 150.2,214.6 150.5,214.2 150.8,212.9 151.1,212.3 151.4,212.9 151.7,214.2 152.0,216.5 152.3,214.8 152.5,215.5 152.8,216.4 153.1,216.0 153.4,216.2 153.7,216.2 154.0,215.3 154.3,215.6 154.6,216.9 154.9,217.0 155.2,216.9 155.5,218.3 155.8,219.6 156.1,220.8 156.3,220.9 156.6,220.9 156.9,220.9 157.2,220.9 157.5,220.9 157.8,220.9 158.1,220.9 158.4,220.9 158.7,220.9 159.0,220.9 159.3,220.9 159.6,220.9 159.9,220.9 160.1,220.9 160.4,220.9 160.7,220.9 161.0,220.9 161.3,220.9 161.6,220.9 161.9,220.9 162.2,220.9 162.5,220.9 162.8,220.9 163.1,220.9 163.4,220.9 163.7,220.9 163.9,220.9 164.2,220.9 164.5,220.9 164.8,220.9 165.1,220.9 165.4,220.9 165.7,220.9 166.0,220.9 166.3,220.9 166.6,220.9 166.9,220.9 167.2,220.9 167.5,220.9 167.7,220.9 168.0,220.9 168.3,220.9 168.6,220.9 168.9,220.9 169.2,220.9 169.5,220.9 169.8,220.9 170.1,220.9 170.4,220.9 170.7,220.9 171.0,220.9 171.3,220.9 171.5,220.9 171.8,220.9 172.1,220.9 172.4,220.9 172.7,220.9 173.0,220.9 173.3,220.9 173.6,220.9 173.9,220.9 174.2,220.9 174.5,220.9 174.8,220.9 175.1,220.9 175.3,220.9 175.6,220.9 175.9,220.9 176.2,220.9 176.5,220.9 176.8,220.9 177.1,220.9 177.4,220.9 177.7,220.9 178.0,220.9 178.3,220.9 178.6,220.9 178.9,220.9 179.1,220.9 179.4,220.9 179.7,220.9 180.0,220.9 180.3,220.9 180.6,220.9 180.9,220.9 181.2,220.9 181.5,220.9 181.8,220.9 182.1,220.9 182.4,220.9 182.7,220.9 182.9,220.9 183.2,220.9 183.5,220.9 183.8,220.9 184.1,220.9 184.4,220.9 184.7,219.9 185.0,218.5 185.3,218.3 185.6,217.0 185.9,215.9 186.2,216.3 186.5,219.1 186.7,217.6 187.0,216.4 187.3,215.4 187.6,216.0 187.9,216.5 188.2,218.3 188.5,216.3 188.8,216.2 189.1,215.4 189.4,217.5 189.7,219.4 190.0,218.7 190.3,218.0 190.5,216.5 190.8,216.8 191.1,217.2 191.4,217.3 191.7,218.0 192.0,218.6 192.3,218.0 192.6,218.0 192.9,218.1 193.2,218.0 193.5,218.4 193.8,216.7 194.1,216.9 194.3,215.7 194.6,215.0 194.9,214.0 195.2,213.5 195.5,213.9 195.8,213.7 196.1,214.0 196.4,214.0 196.7,213.1 197.0,214.8 197.3,216.1 197.6,217.2 197.9,216.8 198.1,216.3 198.4,216.4 198.7,215.0 199.0,215.1 199.3,214.9 199.6,214.3 199.9,214.7 200.2,214.0 200.5,214.2 200.8,214.3 201.1,214.0 201.4,213.4 201.7,212.5 201.9,213.0 202.2,214.1 202.5,213.5 202.8,215.3 203.1,215.6 203.4,215.3 203.7,216.5 204.0,217.0 204.3,217.4 204.6,217.4 204.9,217.2 205.2,217.1 205.5,216.4 205.7,217.7 206.0,216.9 206.3,217.0 206.6,217.1 206.9,216.1 207.2,216.7 207.5,217.5 207.8,219.2 208.1,218.4 208.4,219.7 208.7,220.5 209.0,222.2 209.3,222.3 209.5,222.4 209.8,222.4 210.1,222.4 210.4,222.4 210.7,222.4 211.0,222.4 211.3,222.4 211.6,222.4 211.9,222.4 212.2,222.4 212.5,222.4 212.8,222.4 213.1,222.4 213.3,222.4 213.6,222.4 213.9,222.4 214.2,222.4 214.5,222.4 214.8,222.4 215.1,222.4 215.4,222.4 215.7,222.4 216.0,222.4 216.3,222.4 216.6,222.4 216.9,222.4 217.1,222.4 217.4,222.4 217.7,222.4 218.0,222.4 218.3,222.4 218.6,222.4 218.9,222.4 219.2,223.3 219.5,222.5 219.8,222.5 220.1,222.1 220.4,222.2 220.7,221.0 220.9,221.1 221.2,221.2 221.5,220.8 221.8,221.3 222.1,222.9 222.4,223.7 222.7,224.0 223.0,222.7 223.3,220.9 223.6,222.0 223.9,222.0 224.2,222.7 224.5,222.3 224.7,223.4 225.0,223.1 225.3,223.5 225.6,224.3 225.9,224.8 226.2,226.0 226.5,225.3 226.8,225.8 227.1,224.5 227.4,223.9 227.7,222.8 228.0,223.0 228.3,221.7 228.5,220.6 228.8,221.1 229.1,220.8 229.4,219.9 229.7,219.7 230.0,220.1 230.3,219.4 230.6,218.6 230.9,219.1 231.2,219.0 231.5,218.9 231.8,218.2 232.1,218.6 232.3,217.5 232.6,216.8 232.9,217.4 233.2,218.0 233.5,218.8 233.8,217.9 234.1,218.7 234.4,218.7 234.7,217.0 235.0,216.4 235.3,216.1 235.6,216.2 235.8,216.5 236.1,217.7 236.4,217.6 236.7,218.3 237.0,216.4 237.3,217.5 237.6,217.8 237.9,218.1 238.2,218.3 238.5,218.2 238.8,218.0 239.1,216.8 239.4,216.7 239.6,216.7 239.9,216.6 240.2,216.7 240.5,217.5 240.8,217.7 241.1,216.6 241.4,216.3 241.7,216.6 242.0,216.9 242.3,216.7 242.6,216.6 242.9,216.3 243.2,216.5 243.4,218.5 243.7,219.0 244.0,219.3 244.3,219.8 244.6,219.3 244.9,220.2 245.2,221.7 245.5,221.1 245.8,221.5 246.1,221.4 246.4,222.6 246.7,223.0 247.0,223.3 247.2,222.9 247.5,222.3 247.8,222.9 248.1,223.1 248.4,221.4 248.7,221.2 249.0,219.4 249.3,221.2 249.6,221.3 249.9,219.8 250.2,218.8 250.5,217.0 250.8,217.2 251.0,216.8 251.3,219.5 251.6,221.0 251.9,220.5 252.2,220.9 252.5,219.7 252.8,219.9 253.1,219.3 253.4,220.2 253.7,221.4 254.0,220.1 254.3,219.5 254.6,219.5 254.8,218.7 255.1,217.4 255.4,216.2 255.7,216.2 256.0,217.1 256.3,216.7 256.6,216.0 256.9,217.5 257.2,220.1 257.5,219.4 257.8,218.1 258.1,217.8 258.4,217.8 258.6,217.7 258.9,217.4 259.2,218.6 259.5,218.2 259.8,216.8 260.1,216.1 260.4,216.2 260.7,215.4 261.0,214.4 261.3,215.3 261.6,213.8 261.9,212.9 262.2,212.6 262.4,212.0 262.7,211.5 263.0,212.1 263.3,211.2 263.6,210.7 263.9,209.1 264.2,209.6 264.5,210.7 264.8,211.5 265.1,209.9 265.4,209.8 265.7,210.6 266.0,212.3 266.2,208.8 266.5,208.8 266.8,209.4 267.1,209.9 267.4,208.4 267.7,208.8 268.0,210.3 268.3,210.1 268.6,207.8 268.9,206.3 269.2,204.2 269.5,205.1 269.8,206.8 270.0,207.2 270.3,207.8 270.6,207.6 270.9,206.2 271.2,206.9 271.5,208.0 271.8,209.5 272.1,208.4 272.4,207.9 272.7,206.9 273.0,208.4 273.3,209.2 273.6,207.7 273.8,206.9 274.1,205.3 274.4,203.9 274.7,202.7 275.0,203.2 275.3,203.3 275.6,203.1 275.9,200.1 276.2,198.7 276.5,199.0 276.8,198.5 277.1,198.0 277.4,198.5 277.6,197.4 277.9,195.9 278.2,192.2 278.5,189.9 278.8,189.3 279.1,190.0 279.4,191.6 279.7,189.8 280.0,188.0 280.3,185.9 280.6,185.1 280.9,184.9 281.2,184.7 281.4,183.5 281.7,186.5 282.0,188.7 282.3,192.1 282.6,192.7 282.9,192.5 283.2,190.4 283.5,190.0 283.8,189.4 284.1,189.3 284.4,189.9 284.7,191.3 285.0,191.2 285.2,191.3 285.5,192.8 285.8,193.8 286.1,195.0 286.4,195.9 286.7,196.0 287.0,196.0 287.3,196.0 287.6,196.0 287.9,196.0 288.2,196.0 288.5,196.0 288.8,196.0 289.0,196.0 289.3,196.0 289.6,196.0 289.9,196.0 290.2,196.0 290.5,196.0 290.8,196.0 291.1,196.0 291.4,196.0 291.7,196.0 292.0,193.3 292.3,195.7 292.6,195.7 292.8,197.6 293.1,197.7 293.4,198.3 293.7,195.1 294.0,194.5 294.3,196.0 294.6,193.9 294.9,196.2 295.2,195.0 295.5,192.0 295.8,191.4 296.1,190.2 296.4,189.2 296.6,189.2 296.9,188.4 297.2,190.7 297.5,190.1 297.8,190.6 298.1,189.1 298.4,189.3 298.7,189.1 299.0,189.7 299.3,190.5 299.6,189.8 299.9,190.0 300.2,191.5 300.4,191.8 300.7,191.7 301.0,191.2 301.3,190.5 301.6,191.0 301.9,190.8 302.2,187.4 302.5,187.4 302.8,191.2 303.1,192.7 303.4,193.8 303.7,192.3 304.0,190.2 304.2,190.9 304.5,190.6 304.8,191.0 305.1,192.5 305.4,192.3 305.7,191.7 306.0,193.5" fill="none" stroke="#f85149" stroke-width="2"/>
  <text x="306" y="226" fill="#f85149" font-size="12" text-anchor="end">×0.94 on regime_switch</text>
</svg>
